<?xml version="1.0" encoding="UTF-8"?>
<svg width="107px" height="109px" viewBox="0 0 107 109" version="1.1" xmlns="http://www.w3.org/2000/svg" xmlns:xlink="http://www.w3.org/1999/xlink">
    <!-- Generator: Sketch 51.3 (57544) - http://www.bohemiancoding.com/sketch -->
    <title>Group 112</title>
    <desc>Created with Sketch.</desc>
    <defs>
        <polygon id="path-1" points="0.110607092 0.0571137778 0.234094326 0.0571137778 0.234094326 0.822700444 0.110607092 0.822700444"></polygon>
    </defs>
    <g id="Page-1" stroke="none" stroke-width="1" fill="none" fill-rule="evenodd">
        <g id="Artboard-Copy" transform="translate(-465.000000, -70.000000)">
            <g id="Group-112" transform="translate(519.500000, 125.500000) rotate(45.000000) translate(-519.500000, -125.500000) translate(456.000000, 92.000000)">
                <path d="M123.395271,34.6433464 C123.173292,53.1933511 107.181162,68.1615542 88.344155,66.9289549 C80.6063169,66.4204937 73.6149922,63.2532834 68.2666254,58.3450127 C64.4227323,54.8184154 58.4970857,54.7493541 54.5755336,58.1901276 C49.1160652,62.9770382 42.0526927,65.9837758 34.3036322,66.315449 C15.4446297,67.1251874 -0.200729072,51.7975973 0.00194729723,33.2475925 C0.221232804,14.7002698 16.2133635,-0.270615206 35.0501456,0.964666079 C42.7882082,1.47335075 49.7795329,4.64056101 55.1305931,9.54883173 C58.9717928,13.0754291 64.9001327,13.1444904 68.8216848,9.70371683 C74.2811533,4.91680629 81.3445257,1.91006862 89.0908929,1.57548999 C107.949895,0.768433589 123.59503,16.0960237 123.395271,34.6433464" id="Fill-1" fill="#8982F1"></path>
                <g id="Group-5" transform="translate(125.198582, 33.946667)">
                    <mask id="mask-2" fill="white">
                        <use xlink:href="#path-1"></use>
                    </mask>
                    <g id="Clip-4"></g>
                    <polygon id="Fill-3" fill="#9892F3" mask="url(#mask-2)" points="0.194147872 0.822700444 0.234004255 0.609789333 0.110607092 0.0571137778"></polygon>
                </g>
                <path d="M124.367002,31.2666667 C124.351239,31.3510208 124.313635,31.3135301 124.297872,31.3995244 C124.297872,31.3995244 124.408434,31.8105163 124.519222,32.2215082 C124.609968,32.6374208 124.700715,33.0533333 124.700715,33.0533333 C124.785156,32.6758487 124.698688,32.3480393 124.571012,32.0588922 C124.448291,31.7690422 124.320165,31.5157456 124.367002,31.2666667" id="Fill-6" fill="#9892F3"></path>
                <path d="M124.53611,31.2528703 C124.558628,30.9774478 124.507512,30.7874536 124.452569,30.651518 C124.397176,30.5153851 124.333,30.4333107 124.297872,30.3733333 C124.37128,30.4613265 124.39695,30.7140602 124.423296,30.9277297 C124.443112,31.141991 124.455046,31.3181746 124.53611,31.2528703" id="Fill-8" fill="#9892F3"></path>
                <path d="M86.4680851,0.932193333 C86.5252801,0.922813333 86.6002642,0.906956667 86.6570089,0.893333333 C86.5597323,0.90316 86.4989344,0.917453333 86.4680851,0.932193333" id="Fill-10" fill="#9892F3"></path>
                <path d="M72.9891393,6.62265463 L72.9351261,6.80698019 C73.9568747,5.98820557 75.1755463,5.30064195 76.4455303,4.69320031 C76.7660083,4.54668511 77.0808599,4.3855409 77.4080895,4.25162917 C77.7339688,4.11411644 78.0596231,3.97660372 78.3846021,3.83931605 C78.712957,3.7108058 79.0406368,3.58274567 79.3665161,3.45513566 C79.6901448,3.3207738 80.0175995,3.20329157 80.3419034,3.08333366 L80.1789637,3.18461144 C81.8371672,2.62330746 83.5016723,2.18916335 85.1724788,1.87722778 C86.8444106,1.57384455 88.5210686,1.38524281 90.203353,1.32875231 C91.8854123,1.24840527 93.5730979,1.32875231 95.262359,1.51915455 C96.9549958,1.69740345 98.6429066,2.05120051 100.326541,2.52810634 C100.21829,2.50875103 100.172604,2.53328276 100.060977,2.51415251 C100.394958,2.57131819 100.777551,2.60530252 101.137188,2.72728598 C101.222934,2.78265117 101.017684,2.75114253 100.89773,2.72751104 C101.238013,2.87605179 101.656615,3.05655131 102.117077,3.223097 C102.347083,3.30681997 102.586766,3.38941763 102.8296,3.47043986 C103.068383,3.56203999 103.309417,3.6543153 103.546175,3.74501518 C104.504458,4.08508348 105.363942,4.49199511 105.746985,4.75576747 C106.127328,4.92298835 106.324926,4.94436921 106.152984,4.77197192 C106.756356,5.10168737 107.380208,5.40844652 107.971201,5.78204902 C108.270299,5.9627736 108.570297,6.14417336 108.87142,6.32602325 C109.163542,6.52182697 109.456563,6.71830587 109.750259,6.91523489 L110.191367,7.21096602 L110.619196,7.5276279 C110.904565,7.73963606 111.190385,7.95186928 111.476654,8.16455263 C111.756848,8.38511314 112.029614,8.61580142 112.307332,8.84131329 C112.584374,9.06750034 112.863667,9.2918869 113.124955,9.5372042 L113.9239,10.2578519 C114.189239,10.4991181 114.436125,10.7599646 114.693587,11.0100082 C115.214589,11.504694 115.687429,12.0446171 116.175123,12.569236 C116.422458,12.8287322 116.639186,13.1138854 116.872792,13.3841846 C117.098297,13.6610105 117.341356,13.9238826 117.552458,14.2106113 C117.981187,14.7788922 118.428371,15.3318689 118.818841,15.9199552 C118.943746,16.163247 118.923266,16.2345915 118.822892,16.2111851 C120.271569,18.1345628 121.450856,20.3397177 122.322268,22.6718075 C123.18963,25.0077233 123.741014,27.4680983 124.030884,29.9183455 C124.141386,30.0956942 124.062392,29.4045295 124.212278,29.8769341 C124.201476,29.6770793 124.185272,29.4819508 124.162991,29.2910984 C124.131934,29.1018215 124.096375,28.9163706 124.058116,28.7342957 C123.981597,28.3701458 123.894276,28.0192745 123.809205,27.6738047 C123.713107,27.3303605 123.608231,26.9943433 123.524961,26.6524746 C123.437415,26.311506 123.379126,25.9624353 123.311159,25.6063876 L123.443941,25.7634807 C123.208309,24.7344984 123.179277,25.61539 122.985955,24.5359939 C122.935993,24.1011746 123.118962,24.6080137 123.070125,24.4133353 C122.384159,22.2842512 121.5267,20.0847228 120.33346,18.3371183 C120.303077,18.0584919 119.9871,17.5460263 119.669098,16.9921494 C119.513135,16.7130728 119.332866,16.4378223 119.176228,16.1808018 C119.020715,15.9231061 118.889958,15.6827401 118.813215,15.4846858 C118.628895,15.2591739 118.445925,15.033212 118.285011,14.8468608 C118.124997,14.6598345 117.986588,14.5130943 117.872936,14.4606549 C115.598757,11.2904352 112.706129,8.50101993 109.380044,6.33480066 C107.720715,5.24640207 105.961912,4.30271818 104.132892,3.51590233 C102.304322,2.72796117 100.404635,2.09486248 98.4601621,1.64496406 C96.60211,1.39694602 94.5921459,1.07263205 92.4626777,0.923416113 C92.196438,0.907436729 91.9290729,0.891457345 91.6603575,0.875477961 L91.2561592,0.850946231 C91.1211263,0.846219935 90.9856433,0.847795367 90.8499353,0.845994873 C90.3073283,0.846670058 89.7590949,0.827989934 89.2099613,0.850271046 C88.111694,0.89595858 87.0026241,0.988008833 85.9135842,1.19078946 C85.8816264,1.18313736 85.8850022,1.16895847 85.9126839,1.1541044 C85.2037614,1.29679354 84.3397762,1.49619825 83.4456336,1.71135727 C83.0016006,1.83199037 82.5440642,1.93349321 82.1007064,2.05975285 C81.6566733,2.184212 81.2200671,2.30664558 80.8059663,2.42277744 L80.1400293,2.72638573 C79.974389,2.80200648 79.8085236,2.87785229 79.6840683,2.93456785 C79.5616385,2.99578464 79.4801687,3.03652082 79.4801687,3.03652082 C78.2583464,3.445458 77.0597047,3.93766803 75.8880696,4.4967214 C75.5950483,4.63603462 75.3096789,4.79132723 75.0200334,4.93896773 L74.5870281,5.16335429 C74.4438932,5.24055046 74.3043593,5.32427343 74.1627998,5.40439541 L73.316819,5.89345458 L72.4913181,6.41829856 C71.4000276,7.13354478 70.3395695,7.90460631 69.3439273,8.75691514 C69.0929912,8.96757293 68.8398046,9.18295701 68.5985459,9.36998332 C68.3545865,9.56443667 68.1160285,9.76609199 67.8475382,9.92633595 L67.4559429,10.1826813 C67.3278867,10.2722558 67.1827264,10.3325724 67.0470184,10.4093185 L66.6333677,10.6283035 C66.4954091,10.7009985 66.3466479,10.7514123 66.2039632,10.8142045 C63.9070543,11.7945735 61.226427,11.858266 58.8811314,10.9735482 C57.708371,10.5360282 56.6227068,9.86804496 55.7049335,9.0177617 C54.7320218,8.13754522 53.7312032,7.27488356 52.6714204,6.49436943 C51.4646767,5.61032691 50.2223744,4.81360834 48.9514902,4.1008378 C47.6729541,3.40247121 46.3683116,2.78962808 45.0429641,2.25735706 C43.7133406,1.73566394 42.3609865,1.31007219 40.9969296,0.956050065 C39.6283716,0.620483007 38.2472105,0.36908904 36.8574974,0.200967918 C34.0760456,-0.104665929 31.2624109,-0.0682059265 28.4751077,0.355135212 C25.6884796,0.781177091 22.940561,1.62695912 20.3044945,2.84499327 C20.3051697,2.80740796 20.2101966,2.82451265 20.4838632,2.70005351 C20.0931681,2.8542208 19.7249785,3.04799897 19.3504874,3.21747046 C18.9784719,3.39211837 18.6053311,3.55483801 18.2501947,3.74816605 C17.8907822,3.93271668 17.5340704,4.11569187 17.1793841,4.29754176 C16.8332499,4.49514597 16.4889161,4.69162487 16.1459326,4.88742859 C15.9755662,4.98690588 15.8011487,5.07940626 15.6348333,5.18473515 L15.1383625,5.50274739 C14.8102326,5.71835654 14.4731006,5.9197868 14.1553233,6.14912472 C13.8388963,6.38026313 13.5222442,6.6116266 13.204917,6.8434402 C13.0449031,6.9575465 12.8905155,7.07907984 12.740629,7.20713997 L12.2862435,7.58614395 L12.272065,7.55260975 C9.31034434,10.1212394 6.5698525,13.1906315 4.51285197,16.6689607 C2.44752441,20.1304103 1.03755633,23.9600609 0.536359371,27.6877586 C-0.297693579,32.1745895 -0.198219374,37.1657838 1.1118244,41.9301158 C2.39688709,46.6960233 4.82635325,51.2024345 7.99669969,54.8369566 L7.92805799,54.8657645 C10.492332,57.7584831 13.4137678,60.2413642 16.6709854,62.2131302 C19.9378803,64.1558631 23.5556356,65.5676755 27.3829169,66.1872704 C31.2959441,66.9452784 35.479262,66.8340979 39.4681326,65.9475797 C43.4653302,65.0655627 47.2647047,63.4577216 50.6839618,61.4029079 C51.7772778,60.819998 52.8730694,60.0462357 53.9400541,59.1729962 C54.4624062,58.7210722 54.9840831,58.2542941 55.5190383,57.8093471 C55.6477696,57.6900643 55.7981062,57.5998146 55.9396656,57.4965112 L56.3708705,57.193128 C56.6704184,57.0103779 56.9773931,56.83573 57.2863933,56.6658083 C58.5455747,56.0300089 59.9411393,55.665859 61.2923681,55.6116191 C62.6435969,55.552878 63.9423879,55.8051722 65.0075721,56.2748761 C66.1116908,56.7308512 67.1233119,57.3628246 68.0010255,58.1309603 C68.4351561,58.5128901 68.8663611,58.9267786 69.301842,59.3305394 C69.5151939,59.5375962 69.7494759,59.7201213 69.9731804,59.9150247 C70.201611,60.1043016 70.4217145,60.3041565 70.658022,60.4835307 C71.1290616,60.8431793 71.5913241,61.2156565 72.083969,61.5449219 C72.3279284,61.7128179 72.568737,61.8856653 72.8162972,62.0479349 L73.5684302,62.5201144 L73.945622,62.7537285 L74.332041,62.9720384 L75.1055542,63.4061825 L75.8970718,63.8061172 C76.1610611,63.9391287 76.4246002,64.0728154 76.6966914,64.1887222 C80.9954624,66.1672399 85.7398419,67.0798653 90.47882,66.9842141 C94.8583857,67.1341052 99.2474037,66.2095515 103.225922,64.5094351 C107.217943,62.8111192 110.805766,60.3725752 113.960359,57.5316209 C115.301235,56.0291087 116.726507,54.4750573 118.045553,52.7362303 C119.362798,51.0028048 120.569317,49.0807775 121.417323,46.9870281 L121.273738,47.1009093 C121.383115,46.9280619 121.482139,46.7439614 121.572836,46.552884 C121.665109,46.3622567 121.746803,46.1639773 121.809369,45.9578207 C121.942151,45.5484334 122.050402,45.1286933 122.155503,44.7298839 C122.252501,44.3281487 122.32677,43.9408174 122.43322,43.6057005 C122.53607,43.2692332 122.667277,42.9829546 122.818064,42.7626192 L122.793533,42.9323157 C122.995857,42.5436341 123.004409,42.0286928 123.005085,41.5641654 C123.003734,41.0980625 122.961649,40.673146 123.133591,40.4440331 L123.063149,40.290541 C123.14912,39.7846022 123.182878,39.7598454 123.219112,39.7650218 C123.252645,39.7697481 123.302382,39.8075585 123.376875,39.4168513 C123.407483,39.1184194 123.214836,39.2759627 123.360221,38.6689711 C123.815057,38.588399 123.548367,36.1581823 123.988799,36.1183464 C123.962017,36.6882027 124.209803,35.2345289 124.235009,36.5221072 C124.316479,36.1602079 124.346411,34.4006752 124.151289,34.5582184 C123.945138,34.407202 123.783099,33.7317917 123.599904,34.7776536 L123.741239,34.9912372 C123.578299,35.3394077 123.656168,35.2570351 123.539365,35.3787935 C123.52136,35.7188618 123.493904,35.9846597 123.46082,36.2065706 C123.423011,36.4282564 123.369673,36.60538 123.321962,36.7703503 C123.223388,37.0998407 123.120538,37.3789172 123.032091,37.8553729 C123.037267,37.8463705 123.042219,37.8375931 123.04852,37.8531223 C123.099383,38.1916152 123.053696,38.5852482 122.994282,38.9584005 C122.933517,39.3315529 122.852497,39.6833244 122.78138,39.9367439 L122.6585,40.1275963 C122.429395,40.4019466 122.687082,41.7041538 122.480257,41.238276 C121.931123,43.9252881 120.876067,46.9330133 119.374276,49.6168746 C119.315087,49.829783 119.047497,50.3557523 118.808939,50.7390324 C118.581408,51.1283892 118.436698,51.4088162 118.706539,51.1792532 C118.128373,51.7369562 116.73776,53.5412762 116.218108,54.2099346 C116.219233,54.1700987 116.220134,54.1248613 116.307455,54.025384 C116.002281,54.3071613 115.761697,54.5301975 115.589305,54.7539088 C115.412412,54.9742443 115.285256,55.1801758 115.15765,55.3829564 C114.896812,55.7815408 114.613018,56.1546931 113.951132,56.5820854 C113.969136,56.7664109 113.449259,57.2372401 112.883472,57.7692861 C112.590675,58.0251813 112.278074,58.2873782 112.015886,58.5428233 C111.884229,58.6699832 111.764499,58.7946674 111.663225,58.9130498 C111.557224,59.0258058 111.470803,59.1338354 111.411614,59.2337628 C111.223468,59.3048823 111.139072,59.3008312 111.161578,59.2191338 C110.890162,59.4333926 110.61537,59.6503521 110.338327,59.8688871 C110.050032,60.0723429 109.759712,60.2771491 109.468716,60.4821803 L109.030984,60.7875891 L108.579074,61.0707168 C108.278176,61.2586433 107.978628,61.4458947 107.681556,61.6313456 C106.46401,62.3225102 105.272795,62.948632 104.203785,63.4145098 C103.990208,63.5454957 103.759977,63.674006 103.518268,63.8002656 C103.276784,63.9265252 103.01392,64.027803 102.749706,64.1394336 C102.484141,64.2481385 102.211825,64.3550428 101.937483,64.4608218 C101.659766,64.5569232 101.376872,64.6440221 101.098029,64.7353971 C100.818961,64.825872 100.542144,64.9158966 100.270953,65.0041209 C99.996611,65.0815421 99.7290209,65.1605388 99.4722334,65.2424612 C99.2152208,65.3234835 98.9701362,65.4117077 98.7378797,65.496781 C98.5033726,65.5737521 98.2839442,65.6558997 98.0834204,65.7450241 C97.9072025,65.7756325 97.7177064,65.8087166 97.5167325,65.8438262 C97.3164338,65.8814115 97.1042072,65.916071 96.8805027,65.9399276 C96.4366947,65.9984436 95.9564279,66.061686 95.4590568,66.1271789 C94.9594353,66.1730915 94.4440599,66.2277815 93.93071,66.2946249 C93.4155596,66.3403124 92.9010844,66.3864501 92.406414,66.455544 L92.5970354,66.4010791 C92.4572764,66.4114319 92.3152669,66.4220098 92.1716819,66.4328128 C92.0274218,66.4361887 91.8818114,66.4393396 91.7346256,66.4427155 C91.440254,66.4501426 91.1407061,66.4575696 90.8395828,66.4649966 C90.5384595,66.4796256 90.2355358,66.4703981 89.9346376,66.4631961 C89.6332893,66.4584698 89.3339664,66.4537435 89.04027,66.4492423 C88.7456733,66.4523932 88.4582783,66.4289867 88.1787603,66.4177337 C87.8987922,66.4076059 87.6280513,66.3977032 87.3699135,66.3882506 C86.8543131,66.3565169 86.3870994,66.3331104 85.9948289,66.3360362 C85.6887544,66.1258286 85.2991846,65.9847149 84.8661793,65.8724091 C84.4322737,65.7657298 83.9655101,65.6318181 83.5043729,65.4828272 C83.1296567,65.4468173 82.6748211,65.332711 82.1569701,65.21973 C81.8974819,65.1657152 81.6296667,65.084918 81.3503738,65.0052462 C81.071756,64.9235487 80.7814353,64.8436518 80.488189,64.7518266 C79.3201548,64.3687716 78.0762771,63.8999679 77.0144687,63.4617727 C76.884162,63.3267357 76.4572331,63.1262057 76.0600115,62.9286015 C75.8612881,62.8304745 75.6693164,62.7348233 75.5282071,62.646149 C75.3897984,62.5525233 75.3002266,62.4701507 75.3011268,62.4082587 C73.8501988,61.727672 72.3778905,60.8551076 70.9647717,59.8049695 C70.6181873,59.5337701 70.2686773,59.2603201 69.9173668,58.9852947 C69.5793345,58.6933896 69.2392768,58.3994589 68.8978687,58.104403 C68.1772434,57.4814321 67.3994541,56.8994224 66.5365942,56.4549255 C65.6726089,56.0203313 64.760462,55.6602325 63.8073551,55.4540759 C62.8560486,55.2551213 61.8811113,55.1461915 60.9104502,55.1891782 C60.667391,55.1887281 60.4277077,55.2278889 60.1862239,55.2456687 L59.8245609,55.2798781 C59.7052819,55.2981081 59.5869031,55.3221897 59.4680742,55.3431205 C59.2315416,55.3897083 58.9916333,55.4230174 58.7582515,55.4808583 C58.5259949,55.5447758 58.2944136,55.6084683 58.0635074,55.6721607 L57.8899902,55.7200989 L57.7218743,55.782441 L57.3863176,55.9078004 C57.1632884,55.9926487 56.9362081,56.0680444 56.726007,56.1785497 C56.5115298,56.2816279 56.2981779,56.3842561 56.0857262,56.4864341 C55.8784507,56.598965 55.6799524,56.7252246 55.4776282,56.8438322 L55.5599982,56.7713623 C55.1733542,57.0720448 54.8395979,57.4947107 54.5033661,57.8867683 C54.2002174,58.2713988 53.898869,58.6688579 53.5932447,59.0190539 C53.5097493,59.0591149 53.4966962,59.0260308 53.6472578,58.9071982 C53.405774,59.1108791 53.155063,59.2956548 52.9034518,59.4743538 C52.776746,59.5619028 52.6502652,59.6490017 52.5242345,59.7361006 L52.1321891,59.9762415 C51.8706755,60.1351351 51.6109623,60.2953791 51.3519243,60.4603493 C51.0870348,60.6163171 50.824621,60.779937 50.5664832,60.9599864 C50.5559056,60.9239765 50.5559056,60.9239765 50.7078176,60.7839881 C50.2462302,61.155565 49.6921454,61.4193374 49.1310839,61.7146184 C48.8486402,61.8597832 48.5524681,61.9925697 48.2623725,62.1514633 C48.116537,62.2297847 47.9709266,62.3123824 47.8257663,62.4006066 C47.6779053,62.4834293 47.5295942,62.5700781 47.3828585,62.6648291 L47.2876603,62.6472743 C47.2876603,62.6472743 47.0979392,62.7618307 46.9079929,62.8761621 C46.8130198,62.9335528 46.7178217,62.9907185 46.6464793,63.0337053 C46.5749119,63.076467 46.5256249,63.1016739 46.5256249,63.1016739 C46.5159476,63.0280787 46.5037946,62.9198241 46.9354496,62.7339231 C45.7176783,63.2963523 44.4708749,63.8135442 43.1835617,64.2276578 C41.9002994,64.6500987 40.5902557,65.0144737 39.2536554,65.2739699 L38.7533587,65.3777233 C38.586143,65.409232 38.4173519,65.4337637 38.249236,65.4621215 C37.9127791,65.5154611 37.5765473,65.5760027 37.2385151,65.624166 C36.5604251,65.7036127 35.8823351,65.7994891 35.1979435,65.839325 C34.5151274,65.9072936 33.8287104,65.9108946 33.1416182,65.9347512 C32.7979596,65.9532062 32.454526,65.9390273 32.1104173,65.9316003 L31.077641,65.908644 C28.3256713,65.7673052 25.5786529,65.2726195 22.9317838,64.4349397 C20.2912163,63.5785798 17.7609256,62.3652719 15.4336343,60.849256 C15.4336343,60.849256 15.5274822,60.8915676 15.6242557,60.929378 C15.720129,60.9683137 15.8160024,61.0072494 15.8160024,61.0072494 C15.8160024,61.0072494 15.6971734,60.9433318 15.5191551,60.8474555 C15.3463131,60.7432519 15.1156319,60.6041638 14.8849508,60.4650756 C14.6538196,60.3255373 14.4226883,60.185774 14.2493962,60.0811203 C14.0738534,59.9789423 13.965152,59.8990453 13.965152,59.8990453 C13.9966597,59.8763141 14.0866816,59.9262778 14.1805294,59.9721904 C13.1178208,59.1034521 12.0047,58.2623963 10.9786753,57.3250142 C10.4484463,56.8753408 9.9607526,56.3833559 9.46990817,55.902849 C9.21919716,55.6674344 8.99999382,55.4047874 8.76953774,55.155419 C8.54448298,54.9010992 8.31380185,54.6544315 8.10405081,54.393585 C8.1364587,54.3832321 8.45153537,54.6454291 8.24110916,54.3343937 C7.89474988,53.9812719 7.60848023,53.6387279 7.36091999,53.3173397 C7.11425997,52.9952764 6.93039023,52.6759138 6.74562027,52.3966121 C6.37247947,51.8395843 6.09498695,51.3734815 5.65207918,51.069198 C5.6176458,50.981649 5.6604062,50.8801461 5.79791466,51.0307124 C2.67685522,46.5040456 0.836582424,40.9200387 0.602750526,35.3828446 C0.282497599,33.0883402 0.388498392,30.6050089 0.796297622,28.1603882 C1.20094608,25.7096909 1.92652264,23.3089573 2.72186617,21.0212047 L2.78015535,21.0713935 C3.85479184,18.1287112 5.54157729,15.310488 7.62558439,12.8055508 L8.42317847,11.8771711 C8.69887055,11.5762636 8.98423999,11.2834583 9.26420811,10.9861517 C9.5399002,10.6843439 9.83809776,10.4045922 10.1340448,10.1228149 C10.4331425,9.84418841 10.7158113,9.54823222 11.0306629,9.28738566 L11.9540626,8.48233981 L12.9098702,7.71893038 C13.2235965,7.45853394 13.5557774,7.2228943 13.8852575,6.98432885 C14.2172133,6.74981451 14.5343155,6.49414437 14.8779741,6.2780851 C15.448938,5.92023693 15.9575618,5.56643987 16.4742875,5.27656034 C16.7283744,5.12486873 16.9768348,4.97655304 17.2223696,4.83003785 C17.4652037,4.67857129 17.7208659,4.55658783 17.9677509,4.41862498 C18.2166615,4.28426312 18.4657971,4.14990126 18.7178585,4.0137389 C18.97082,3.87870186 19.2368347,3.76257 19.5041998,3.63270937 C19.7733653,3.50622467 20.0488323,3.37703923 20.3337517,3.2431275 C20.6258727,3.1254202 20.9274461,3.00411193 21.2420727,2.87740216 L21.3383961,2.93749365 C23.4001228,1.94699692 25.7676989,1.37601528 28.1667827,1.08298489 C30.5730682,0.7823024 33.0061352,0.763172152 35.3903654,0.739540669 C35.3903654,0.739540669 35.3064199,0.761596719 35.2226996,0.78882919 C35.1389792,0.816736846 35.0552588,0.844644503 35.0552588,0.844644503 C35.4286247,0.762046843 36.1445239,0.853872034 36.7337172,0.904285864 C37.3199849,0.981482042 37.7831476,1.02536908 37.6663442,0.843519194 C37.6663442,0.843519194 37.8718192,0.895733518 38.0772942,0.948172904 C38.281869,1.00421328 38.4846433,1.06813081 38.4846433,1.06813081 C40.1219167,1.11089254 41.5663182,1.52343072 43.0393016,2.06042804 C44.5158859,2.60417721 46.024653,3.27373589 47.8638005,4.03759545 L47.5966605,3.98853199 C48.5668716,4.40512127 49.6750413,4.96079872 50.298668,5.44198072 C50.1890663,5.38706566 50.2255252,5.43702937 50.0020458,5.32179775 C51.3397713,6.30036621 52.7560409,7.29851504 54.1365269,8.39726647 C54.4831112,8.66959118 54.8168674,8.95992083 55.160301,9.24057282 C55.3279668,9.3830369 55.509586,9.52099975 55.6851287,9.66008791 L55.9497931,9.86849508 C56.0364392,9.93961459 56.1257859,10.0071331 56.2221093,10.064974 L56.7842961,10.4306993 C56.9679408,10.5574091 57.1745411,10.6458583 57.3669629,10.7556885 C57.7500061,10.9821006 58.1665825,11.1337922 58.5642543,11.3181178 L58.1420515,11.2904352 C58.9571999,11.5636601 60.1142064,11.9374877 61.3893667,12.0560952 C62.6586756,12.1895568 64.0222824,12.0603714 65.0930929,11.7239041 C65.0930929,11.7239041 64.9803405,11.8301332 64.9792152,11.8267573 C64.9792152,11.8267573 64.9963194,11.8213558 65.0260266,11.8121283 C65.0550587,11.8002 65.0964687,11.7833204 65.1464309,11.7630648 C65.24568,11.7225537 65.3780122,11.6685389 65.5103444,11.6145241 C65.6417764,11.5607343 65.7732084,11.5069446 65.8717824,11.4666585 C65.9683309,11.4220963 66.030446,11.3869867 66.030446,11.3869867 L66.1071897,11.504694 C66.4447718,11.3579537 66.7933816,11.2402464 67.1068829,11.0541203 C67.2666718,10.9674716 67.4260106,10.8812729 67.5851243,10.7952993 C67.7444631,10.7104511 67.8873728,10.5985954 68.0381595,10.5013687 L68.4826427,10.1991108 L68.8944929,9.85746706 C69.1724355,9.63037976 69.4325988,9.4012669 69.6909617,9.17147887 C70.2029613,8.70312538 70.7453433,8.2741577 71.2850246,7.83753792 C71.8424852,7.42477468 72.3954448,6.99940798 72.9891393,6.62265463" id="Fill-12" fill="#9892F3"></path>
                <path d="M100.956298,2.69945159 C100.948867,2.69565492 100.936482,2.69185826 100.928151,2.68627492 C100.841683,2.67242826 100.88244,2.68359492 100.956298,2.69945159" id="Fill-14" fill="#9892F3"></path>
                <path d="M123.397163,37.85835 C123.422383,37.73105 123.452332,37.6269767 123.470346,37.52 C123.443775,37.54345 123.419681,37.7500333 123.397163,37.85835" id="Fill-16" fill="#9892F3"></path>
                <path d="M65.4547335,28.5866667 C82.9245688,28.5866667 98.0483806,18.5239624 105.382979,3.86504694 C100.692287,1.62038565 95.4028935,0.451404451 89.8339107,0.691677417 C82.0392769,1.02796898 74.9318736,4.07633316 69.4387729,8.92731072 C65.4931263,12.4116084 59.5282463,12.3436707 55.662547,8.77037465 C50.2805595,3.79552404 43.2440698,0.586147538 35.4591472,0.0720856796 C31.5893828,-0.183133578 27.8395392,0.246232626 24.3191489,1.25080461 C31.0988588,17.3153509 46.9641025,28.5866667 65.4547335,28.5866667" id="Fill-18" fill="#FD856E"></path>
                <polygon id="Fill-20" fill="#FD9480" points="65.751773 28.6614833 65.0676342 28.5866667 64.8510638 28.7666733"></polygon>
                <path d="M63.061457,27.6933333 L62.1489362,27.7211842 C62.633553,28.3074561 61.9302194,28.1047769 63.3496703,28.5866667 C63.4777394,28.5716881 63.6441593,28.553901 63.8191793,28.5283905 C63.9944316,28.4977312 64.1782838,28.462157 64.3414498,28.421902 C64.6677817,28.3416261 64.9102064,28.243563 64.8383855,28.1333298 C64.6577872,28.1410532 64.4337246,28.1958187 64.1873486,28.2386482 C64.0639282,28.2601799 63.9351619,28.2786691 63.8038389,28.2868605 C63.6725158,28.2901371 63.5388685,28.2831159 63.405686,28.2583076 C63.6413702,28.1178832 64.2154727,28.1504148 64.4911348,27.9430548 C63.6360243,27.7555882 63.9416699,28.0738835 62.9989332,27.9430548 L63.061457,27.6933333 Z" id="Fill-22" fill="#FD9480"></path>
                <path d="M62.2876907,28.8318867 C62.3768609,28.74836 62.4680577,28.6626 62.4601765,28.5866667 C62.3701056,28.67466 61.9283077,28.7434467 62.2876907,28.8318867" id="Fill-24" fill="#FD9480"></path>
                <path d="M61.248227,28.81469 C60.5281816,28.7418833 61.2827358,28.62039 61.2137181,28.5866667 L60.3475177,28.8680667 L61.248227,28.81469 Z" id="Fill-26" fill="#FD9480"></path>
                <path d="M58.8138351,27.6972315 C58.7201613,27.6936582 58.6332429,27.6925415 58.5460993,27.6938815 C58.6269379,27.7597648 58.7100284,27.7253715 58.8138351,27.6972315" id="Fill-28" fill="#FD9480"></path>
                <path d="M57.6453901,27.936882 C57.8871306,28.0900886 58.2320276,28.0757953 58.6623675,28.0724453 C58.6511661,28.064852 58.6412673,28.0597153 58.625377,28.046762 C58.273707,27.9022653 58.6636699,27.7048386 59.2464001,27.8359353 C59.875238,27.8520153 59.7864088,28.0853986 60.3475177,27.989142 L59.6392284,27.707742 C59.1513189,27.665532 58.7530201,27.723822 58.4271393,27.7825586 C58.101519,27.8406253 57.8459722,27.9172286 57.6453901,27.936882" id="Fill-30" fill="#FD9480"></path>
                <path d="M59.4468085,27.710797 C59.5443103,27.7143703 59.6429379,27.720847 59.7516986,27.7353636 C59.6224468,27.6775203 59.5294486,27.6898036 59.4468085,27.710797" id="Fill-32" fill="#FD9480"></path>
                <path d="M60.3475177,28.7150833 C60.3475177,28.7150833 60.4211507,28.71151 60.4947837,28.7077133 C60.5686418,28.7019067 60.6425,28.6961 60.6425,28.6961 L60.5846294,28.5866667 C60.5846294,28.5866667 60.5254078,28.61972 60.4661862,28.6527733 C60.4067394,28.68404 60.3475177,28.7150833 60.3475177,28.7150833" id="Fill-34" fill="#FD9480"></path>
                <path d="M56.2924293,27.5381628 C56.3804203,27.3623343 56.6731291,27.4557927 56.9674233,27.5608673 C57.2605285,27.6728062 57.5605699,27.7580804 57.6453901,27.627133 C57.480506,27.5930762 57.3265218,27.5439709 57.1917608,27.4827214 C57.0575943,27.4161917 56.9420566,27.3414778 56.8528765,27.2664999 C56.67412,27.1168081 56.6000014,26.9668522 56.6866052,26.880522 L55.9523559,26.8 C55.6903647,26.87841 55.942447,27.2498674 56.2924293,27.5381628" id="Fill-36" fill="#FD9480"></path>
                <path d="M54.2418351,26.8 C54.1826135,26.81407 54.1146099,26.8178667 54.0425532,26.8098267 C54.1332996,26.8178667 54.2125621,26.8203233 54.2418351,26.8" id="Fill-38" fill="#FD9480"></path>
                <path d="M50.4397163,26.2231163 C50.4397163,26.2231163 50.5612323,26.2478279 50.7437322,26.2845283 C50.9275873,26.3143779 51.172878,26.3540143 51.4181687,26.3936507 C51.9055879,26.4717002 52.393233,26.5497496 52.393233,26.5497496 C52.1883724,26.6021088 52.2260921,26.7349642 51.7912996,26.6231504 C51.9929981,26.7085399 52.1551701,26.7611438 52.2949813,26.7961315 C52.4363735,26.8262258 52.5551791,26.8389486 52.6694674,26.8502034 C52.8982699,26.8727129 53.1083254,26.8873931 53.4455437,27.0126637 C53.5666079,27.404379 52.2294801,26.6554467 52.5445634,27.0711396 C53.0328861,27.2086437 53.7590459,27.4415688 54.2216199,27.2597796 L54.9432624,27.6933333 L54.7621177,27.2597796 C54.4773004,27.0718736 54.064417,27.371838 53.9329629,27.0696716 C53.8742377,26.8886164 54.1936125,26.944401 54.4215115,26.9664212 C54.2932195,26.9510071 54.1484393,26.9028073 53.9883001,26.8355232 C53.8299679,26.7616331 53.656051,26.6681695 53.4672268,26.5690785 C53.0909337,26.3642904 52.6484619,26.1646404 52.1549442,26.0046267 C51.1125717,25.6650259 51.1751366,26.3256327 50.4397163,26.2231163" id="Fill-40" fill="#FD9480"></path>
                <polygon id="Fill-42" fill="#FD9480" points="50.5095213 25.1815033 50.4397163 25.0133333 50.4606578 25.2123233"></polygon>
                <path d="M48.076719,24.6008064 C48.076719,24.6008064 48.3315088,24.6474952 48.5862986,24.6944031 C48.7132441,24.7176379 48.8401897,24.7406535 48.935455,24.7581892 C49.0313943,24.7728753 49.0954288,24.7825199 49.0954288,24.7825199 C49.1866498,24.8458676 49.2178807,24.9320116 49.2625925,25.0133333 C49.251583,24.9285045 49.555803,24.8991322 49.5382777,24.8246056 C49.213387,24.3960774 48.3600435,24.4717 47.8347361,24.317386 C46.5760656,23.6354672 47.9567386,24.2005545 47.5642186,23.7189809 C47.9255078,23.8818435 47.9111281,23.9497943 48.4144166,24.1760046 C47.742167,23.551296 46.634483,23.3790079 46.085584,23.2266667 C46.2172478,23.3235513 46.2132036,23.4217511 46.5068634,23.5247732 C46.5068634,23.5247732 46.3637407,23.4881675 46.2208428,23.4513426 C46.0768214,23.4164904 45.9361702,23.3737472 45.9361702,23.3737472 C46.1532134,23.6124516 46.3781204,23.7893428 46.6994162,23.9809201 C47.0211613,24.1716207 47.4419914,24.372185 48.076719,24.6008064" id="Fill-44" fill="#FD9480"></path>
                <path d="M50.4397163,25.24426 C49.788148,25.1346033 49.5632741,25.0638067 49.5390071,25.0133333 C49.6502307,25.1247767 49.828593,25.2255 50.4397163,25.24426" id="Fill-46" fill="#FD9480"></path>
                <path d="M45.9361702,23.2266667 C45.984133,23.2720033 46.0809592,23.3117567 46.2126879,23.3546367 C46.1554929,23.3115333 46.0762305,23.2686533 45.9361702,23.2266667" id="Fill-48" fill="#FD9480"></path>
                <path d="M46.8368794,24.4594667 C46.8368794,24.4594667 46.605945,24.3824167 46.3837679,24.2930833 C46.159969,24.20643 45.9361702,24.12 45.9361702,24.12 L46.2027827,24.3746 C46.3380351,24.40676 46.8109317,24.5354 46.8368794,24.4594667" id="Fill-50" fill="#FD9480"></path>
                <path d="M26.8116798,5.36876015 C26.7335638,5.48668527 26.8101039,5.74028044 27.1068095,6.19872839 C26.9296416,6.22703042 26.5975925,5.60191496 26.350638,5.36 C26.6158271,6.0403718 26.1714441,5.44580456 26.1205674,5.68412562 C26.3186713,6.03947332 26.5109221,6.26813574 26.7029477,6.50353675 C26.7990731,6.62123725 26.8951986,6.74073471 26.9922244,6.87910018 C27.0921768,7.0156687 27.1977572,7.16840981 27.3040129,7.35798848 C27.2398543,7.34675752 27.1844752,7.39797072 27.1961814,7.52420675 C27.3569157,7.7322042 27.5455646,7.97636536 27.7477206,8.23827144 C27.9514524,8.49838056 28.1749946,8.77174222 28.3861553,9.05161785 C28.8017232,9.61675995 29.2316987,10.1643818 29.4741508,10.619685 C29.735738,11.0381507 30.0209625,11.3600302 30.3077629,11.6944883 C30.4543148,11.8591342 30.601542,12.0269248 30.7663284,12.1960631 C30.9329157,12.3636291 31.1080576,12.5399552 31.2987325,12.7317801 C32.4238725,14.1042039 33.6971401,15.4029526 35.0710355,16.6352139 C36.4476323,17.8661276 37.9140513,19.0402126 39.4324724,20.2035158 L40.0616774,20.2446211 C40.1154806,20.4905792 40.8131214,20.7446236 40.6051123,20.8625488 C40.4560842,20.7136262 40.2640585,20.6410741 40.0594262,20.4982163 C40.3140347,20.848847 40.7791286,21.1323165 41.2651584,21.4162353 C41.7538897,21.6967848 42.2871943,21.939149 42.6791248,22.2387911 C42.6115894,22.1307492 42.6199188,21.8039282 42.8965888,21.9108469 C42.6431059,22.1983596 43.9033167,22.4645335 43.9548687,22.9703761 C44.7684453,23.5260842 44.1333874,22.7129624 45.0113477,23.2266667 C45.2031483,23.0851565 44.1901171,22.6979129 44.1126765,22.4575703 C44.4672374,22.4627365 44.8861821,22.9492619 44.9492151,22.7268888 C44.2551762,22.3124662 43.205901,21.8362733 42.0683796,21.2742759 C41.4956793,21.0002404 40.9166757,20.6806071 40.3302432,20.3740018 C39.7629457,20.0393191 39.1848426,19.7194612 38.6717986,19.365012 L39.0009212,19.3611935 C37.8881627,18.7324841 36.275417,17.426323 35.7497664,16.4986454 C35.7846597,16.8124385 34.4533116,15.1556467 34.2889755,15.5976975 C34.1210374,15.3079386 34.0485494,15.242799 33.7511685,14.893516 L33.5647707,14.9020516 C33.1107076,14.4328219 33.3265958,14.3710516 32.8149025,13.8310669 C33.0076036,14.3173676 32.600365,13.9568537 32.3376523,13.9006988 C32.1217641,13.5141291 31.8781864,13.1091405 31.6598219,12.7012319 C31.4392062,12.2951202 31.2122872,11.9132675 31.0438989,11.561289 C31.03647,11.6437243 31.0204866,11.7472738 31.1289935,11.9950289 C30.8489467,11.5556736 30.7715061,11.7344705 30.6346343,11.6679832 C30.3163174,11.283435 30.5382838,11.1731469 30.6481414,11.1154198 C30.1330713,10.3658652 29.5358332,10.3016241 29.247457,9.66100995 L29.2368764,9.96986146 C28.9302656,9.60597823 28.717304,9.2223285 28.498039,8.83036786 C28.2760726,8.44020417 28.0457769,8.0433019 27.7450192,7.61585142 C27.6995453,7.05115855 28.3890819,8.2180557 28.7386902,8.4988298 C28.6673278,8.29307854 28.421724,7.92155825 28.4239752,7.75354303 C28.0781939,7.45165472 27.5117969,6.93143647 27.1234682,6.51791238 C27.6518203,6.81193902 26.9735396,5.68524872 26.8116798,5.36876015" id="Fill-52" fill="#FD9480"></path>
                <path d="M28.8232132,8.12598333 C28.922066,8.21062667 29.0146139,8.27762667 29.0738355,8.31336 C29.0031298,8.24055333 28.9355766,8.174 28.8673479,8.04 C28.8308692,8.0467 28.8200607,8.07908333 28.8232132,8.12598333" id="Fill-54" fill="#FD9480"></path>
                <path d="M27.0542231,5.43851882 C27.0612036,5.43047882 27.0605281,5.41261215 27.0690848,5.40568882 C27.0024323,5.32618215 27.0132409,5.35901215 27.0542231,5.43851882" id="Fill-56" fill="#FD9480"></path>
                <path d="M29.8871082,10.9810767 C29.869094,10.9446733 29.8398209,10.9006767 29.8186543,10.86204 C29.7864539,10.8113433 29.7547039,10.7713667 29.7234043,10.72 L29.8871082,10.9810767 Z" id="Fill-58" fill="#FD9480"></path>
                <path d="M31.5248227,10.72 C31.5966543,10.956534 31.7139716,11.266345 31.8540319,11.6133333 C31.8684433,11.465971 31.8749734,11.3452795 31.5248227,10.72" id="Fill-60" fill="#FD9480"></path>
                <path d="M35.1955978,16.2741612 C35.3606527,16.3818079 35.3192201,16.2641112 35.461307,16.3123512 C35.1760073,16.0340779 35.0339204,15.9869545 35.1955978,16.2741612" id="Fill-62" fill="#FD9480"></path>
                <path d="M28.822695,7.14666667 C28.822695,7.14666667 28.6552816,6.98510886 28.497587,6.8189019 C28.3417734,6.65176511 28.1859598,6.48462833 28.1859598,6.48462833 L27.9219858,6.25333333 C27.9219858,6.25333333 28.1439497,6.47858444 28.3659135,6.70383555 C28.4756414,6.81680978 28.5875638,6.92838928 28.6772272,7.00974933 C28.7643825,7.09180675 28.822695,7.14666667 28.822695,7.14666667" id="Fill-64" fill="#FD9480"></path>
                <path d="M33.3245964,0.139743351 C32.635283,-0.117762406 31.6165458,0.0559098537 30.7650411,0.0741658589 C29.9889334,0.199555789 29.953865,0.348486358 29.9251527,0.471714393 C29.8973172,0.601428115 29.876057,0.699674248 29.1527711,0.810651543 L29.3495925,0.275222127 C28.6155669,0.378512683 27.7250486,0.503181981 26.8785849,0.718410674 C26.4557914,0.826745653 26.0437377,0.952856215 25.6696016,1.1044291 C25.4839582,1.17625207 25.2987532,1.2653702 25.15037,1.34560054 C25.0013293,1.42607109 24.8858227,1.50942416 24.8128366,1.59013492 C24.7411655,1.57908524 24.6287275,1.57668313 24.5623167,1.55890755 C24.4974401,1.54089175 24.4781525,1.50726227 24.6333302,1.42294835 C24.5147551,1.46138204 24.4294951,1.50053637 24.3747007,1.53872986 C24.3611117,1.54833828 24.3490569,1.5579467 24.3389747,1.56731492 L24.3247282,1.58148734 C24.3199063,1.58605134 24.3142077,1.5896545 24.3267008,1.60262587 C24.3573857,1.64442252 24.3885089,1.68285621 24.4191937,1.71816717 C24.5425907,1.85917079 24.6648918,1.95357355 24.7768915,2.03644621 C24.888672,2.11907865 24.9890553,2.18801909 25.0624798,2.26488648 C25.0993016,2.3038006 25.1297673,2.34487661 25.154096,2.39700231 C25.1595755,2.41021389 25.1652741,2.42414611 25.1711919,2.43879896 C25.1797398,2.46306023 25.1887261,2.48828234 25.1981507,2.5147055 C25.2224794,2.58460679 25.2468081,2.6619546 25.2709177,2.74770978 C25.0716853,2.44960843 25.0107539,2.4421619 24.9568362,2.426308 C24.9068638,2.42030274 24.8945898,2.48179665 24.8972199,2.58004279 C24.9171651,2.81256664 24.9897129,3.17408359 24.7909188,3.06959198 L24.6822068,2.89207635 C24.8601789,3.30643962 25.1288906,3.75515302 25.3568353,4.17936493 C25.5841224,4.60477789 25.8100944,4.98479105 25.9312996,5.25406713 C26.0461486,5.2149128 25.9839022,4.66266864 26.3407232,5.36 C26.2221482,5.06285949 26.3966135,5.10849951 26.514531,5.07174729 C26.0351897,4.41525173 25.9363407,3.96846002 25.5948621,3.59565318 C25.5488348,3.10778546 25.7638479,3.85027641 25.7180398,3.36312932 L25.5199033,3.10009872 C25.4199584,2.96870353 25.3239586,2.83466602 25.3239586,2.83466602 C25.1777672,2.37418231 25.6520674,3.22092465 25.4000132,2.51422508 C25.3721777,2.50605792 25.3289997,2.46233959 25.2825341,2.40613031 C25.2525067,2.39075684 25.2185342,2.36145114 25.1832466,2.31917408 C25.113329,2.23702206 25.0337676,2.09361633 24.9954115,1.97255019 C24.9954115,1.97255019 25.0203977,1.99825272 25.045384,2.02419547 C25.0694935,2.04773611 25.0938222,2.07127675 25.0938222,2.07127675 C25.0754113,2.04629484 25.0587538,2.02011189 25.0434114,1.99392893 C25.0401237,1.98287925 25.0184251,1.96222113 25.0311374,1.95933861 L25.0600689,1.9456466 C25.09974,1.92763081 25.1400687,1.91081607 25.1681234,1.89063838 C25.2196301,1.85172426 25.2459314,1.79191182 25.0843976,1.69174401 C25.0843976,1.69174401 25.2159041,1.72585391 25.3129997,1.77221455 C25.4136022,1.81689372 25.476287,1.87190195 25.476287,1.87190195 C25.4806706,1.8707009 25.3796297,1.7006318 25.3752462,1.70183285 C25.3956297,1.69895032 25.4155748,1.69630801 25.4350816,1.69366569 L25.4642322,1.69078316 L25.5137664,1.682616 C25.5790813,1.67252716 25.6422044,1.66291873 25.7044508,1.65811452 C25.8282861,1.64682462 25.9453269,1.64129978 26.0584226,1.63865746 C26.2841754,1.63121094 26.4954626,1.64250083 26.7139826,1.64153999 C27.1512418,1.63769662 27.6176516,1.60046398 28.3188005,1.35881212 C27.9657055,1.36241528 28.2657596,1.20219481 28.4472386,1.138539 C27.8252127,1.10803226 27.7259253,1.40685424 27.1659267,1.54689702 C27.0460366,1.37706813 27.9819247,0.954297479 27.2685018,0.981441276 C28.0643354,1.0523034 28.7166078,0.697031931 29.0979767,1.12748932 C30.0154539,1.03837119 30.3503572,0.772217848 31.2983,0.823622915 L31.2737522,0.895686093 C31.4348477,0.570440948 32.0404352,0.993211595 32.7330362,0.666284975 L32.2328731,0.602629168 C32.2539141,0.47027313 32.4963245,0.464748286 32.8369264,0.437604489 C32.7990087,0.487328082 32.7992278,0.487328082 32.9096933,0.548821994 C32.9601042,0.432319856 33.2542404,0.371306365 33.5540753,0.328068458 C33.853691,0.287472867 34.1579094,0.276182969 34.2269504,0.243994749 C33.7732528,0.185383364 33.2145693,0.360016467 32.688324,0.42583417 C32.9557206,0.289154341 32.8746249,0.0933827065 33.3245964,0.139743351" id="Fill-66" fill="#FD9480"></path>
                <path d="M25.3918936,1.91709333 C25.3918936,1.91709333 25.3522624,1.89230333 25.3092535,1.85925 C25.2662447,1.82709 25.2198582,1.78666667 25.2198582,1.78666667 C25.2644433,1.84160667 25.3193865,1.89007 25.3918936,1.91709333" id="Fill-68" fill="#FD9480"></path>
                <path d="M38.2779155,0.560797938 C38.9000671,0.665494711 38.0822953,0.686325384 38.6518609,0.829604185 C38.9795305,0.813664192 38.8119562,0.728349002 38.6413437,0.635063815 C38.4711985,0.543771127 38.2956779,0.451935031 38.6289567,0.39542051 C38.9933197,0.551016579 39.6594099,0.459905027 39.9207042,0.49196615 C39.6114981,0.553009078 39.7229806,0.800984652 39.8225436,0.861846444 C40.0803321,0.827792822 40.5837561,1.04008455 40.9887856,1.11380702 C40.0289146,0.801709197 41.8565726,1.17466881 40.996732,0.866555987 C41.0486169,0.807867831 41.3220644,0.789935339 41.6247265,0.81909828 C41.9259862,0.851883948 42.2585639,0.92198369 42.4312799,1.01182729 C42.37028,1.10040293 42.0685529,1.01708024 41.8131014,0.968173443 C41.5497037,1.10547475 42.4137512,1.1965863 42.4962529,1.38840962 C42.7556775,1.37047713 43.133596,1.41485552 43.5482079,1.47318141 C43.7552802,1.50379344 43.9719347,1.53567342 44.1860185,1.56737227 C44.3996347,1.60124476 44.6071744,1.64399292 44.8041969,1.67659745 C45.1968395,1.74488583 45.5392332,1.79198127 45.7416312,1.78618491 C45.9419256,1.78437354 46.0064312,1.7222438 45.8451673,1.55885887 C45.5598002,1.39221349 45.2382072,1.41087052 44.8834266,1.32899692 C45.821562,1.67985791 44.7936797,1.53712251 44.6824309,1.58476136 C44.3033438,1.3972853 43.5255375,1.36268827 43.7506058,1.25690468 C43.7506058,1.25690468 43.932203,1.26052741 44.114034,1.26415013 C44.2963323,1.26722945 44.478397,1.27429376 44.478397,1.27429376 C42.3887436,0.632527907 39.3532421,0.109587452 36.7727854,0 C36.7727854,0 36.8419653,0.00525295226 36.9462026,0.0130418125 C37.0504399,0.0208306728 37.1895008,0.0300686233 37.3271594,0.0470954341 C37.6036453,0.0775263299 37.8798974,0.10777609 37.8798974,0.10777609 C37.7314879,0.209936954 37.2112364,0.15016198 36.7980267,0.183672193 C36.7980267,0.183672193 36.9235322,0.26083625 37.0488039,0.337819171 C37.1738418,0.414258684 37.2960752,0.49830592 37.2960752,0.49830592 C36.9859343,0.443602762 36.6778968,0.473127976 36.7176285,0.37495211 C36.3177407,0.464071162 36.4871847,0.546125899 36.7038393,0.654626534 C35.8900407,0.650822672 35.7654701,0.523846136 35.1276596,0.679623341 C35.7909452,0.815294418 36.0732739,0.802614878 36.387388,0.769466938 C36.6993987,0.740847405 37.0431947,0.702808785 37.7896831,0.884850752 L38.2779155,0.560797938 Z" id="Fill-70" fill="#FD9480"></path>
                <polygon id="Fill-72" fill="#FD9480" points="35.4309343 1.04564667 36.0283688 0.893333333 35.1276596 0.949836667"></polygon>
                <path d="M35.4728373,0 C35.4944348,0.0752633333 35.1061206,0.0915666667 35.1285997,0.167276667 C36.329685,0.27001 36.20583,0.160576667 35.4728373,0" id="Fill-74" fill="#FD9480"></path>
                <path d="M43.2340426,1.82374 L44.1347518,2.00173667 L43.5847285,1.78666667 C43.5720722,1.86193 43.3487406,1.83669333 43.2340426,1.82374" id="Fill-76" fill="#FD9480"></path>
                <path d="M48.6382979,4.22066818 C48.1679801,3.89237309 47.8044668,3.74352618 47.4428457,3.53733904 C47.2607736,3.43810777 47.0810143,3.31807952 46.8774973,3.18616729 C46.6733495,3.05484926 46.451331,2.89352416 46.19294,2.68139503 C45.5809173,2.64485178 46.2953293,3.337391 45.9955201,3.45147725 C46.5093585,3.82760538 46.5848364,3.30827524 47.1636405,3.57685329 C47.2286062,3.75778697 47.4321232,3.87514132 47.6837863,3.99695216 C47.8097229,4.05815468 47.9476435,4.12024851 48.0857744,4.19214661 C48.2218028,4.27028382 48.3569903,4.3606021 48.4808245,4.46666667 C48.4518107,4.32702984 48.4888138,4.22096528 48.6382979,4.22066818" id="Fill-78" fill="#FD9480"></path>
                <path d="M51.2434048,6.08240408 C51.654847,6.38156572 52.170847,6.53956047 52.4356365,6.86746968 C52.377247,6.90065792 52.2815155,6.88009056 52.1724312,6.82469891 C52.0606312,6.77304678 51.934347,6.68820641 51.818247,6.58630447 C51.8207364,6.75995846 51.9409101,6.83100935 52.1038575,6.91865436 C52.2622786,7.0123761 52.4632471,7.12409427 52.6252892,7.36763055 C52.6055997,7.31387494 52.4765997,7.15330928 52.6336629,7.19888469 C53.1571314,7.64038183 53.3415787,7.71376992 53.5545419,7.83764154 C53.6618156,7.89794131 53.7776893,7.96922592 53.945842,8.10501726 C54.1124104,8.24267836 54.3403104,8.43432879 54.6404052,8.77088564 C54.8793947,8.88657705 55.0681421,9.0597636 55.1570842,8.89008285 C55.4542369,9.3233998 55.5117211,9.44960862 55.5970422,9.59451504 C55.6386843,9.66673453 55.6859843,9.74269354 55.7758317,9.86329308 C55.8208685,9.92359285 55.8763159,9.99511118 55.9473791,10.0829899 C55.9833633,10.1264618 56.0227422,10.1743744 56.0664212,10.2271952 C56.1144001,10.2748741 56.1669054,10.3272273 56.2243896,10.3844888 C56.2363844,10.3248901 56.1906686,10.1860604 56.168037,10.0350773 C56.1483475,9.87941976 56.1469896,9.71908782 56.2214475,9.6302742 C56.7990055,10.2980123 57.1955108,10.5326673 57.5229898,10.6866888 C57.6870688,10.766621 57.8312319,10.8411777 57.9941793,10.9306925 C58.1612004,11.0122608 58.3413478,11.119772 58.5710584,11.2927248 C58.4526952,11.2529924 58.2940478,11.2450459 58.0315214,11.0907907 C58.0274478,11.2693528 58.2524057,11.3562967 58.5402794,11.435294 C58.6124741,11.4542254 58.687611,11.4757276 58.7661426,11.4930229 C58.8455794,11.5075135 58.9270531,11.5222379 59.0089795,11.537196 C59.1710216,11.5701505 59.3305742,11.6129213 59.4724743,11.6792977 L59.3323848,11.9279759 C59.6132427,12.0179581 60.0203849,12.0359545 60.4259428,12.115653 C60.6284955,12.1584238 60.8412323,12.1675389 61.0417481,12.2145166 C61.2438482,12.2516781 61.4362166,12.3229627 61.6154587,12.381159 C61.6154587,12.381159 61.5706482,12.4136461 61.5258377,12.4461332 C61.4805745,12.48049 61.4353113,12.5066667 61.4353113,12.5066667 C61.6251903,12.4973179 61.8186903,12.4879691 62.0146798,12.4783865 C62.2095378,12.4659994 62.4057536,12.4807237 62.6028747,12.4557157 C62.9964379,12.4134124 63.3947537,12.4143473 63.7803959,12.3414266 C63.9734432,12.3133802 64.1649064,12.2855675 64.3532012,12.2582223 C64.5396854,12.219191 64.7211907,12.1717459 64.8986223,12.1287414 C65.0749223,12.0810625 65.2503171,12.0485754 65.411454,11.9868733 C65.5732698,11.9265735 65.7282961,11.8660401 65.8749488,11.8048054 C65.8749488,11.8048054 66.0514751,11.7935868 66.2280014,11.7821346 C66.4029436,11.7622684 66.5769804,11.7311836 66.5769804,11.7311836 C67.3518858,11.2819737 66.9322963,11.4355277 66.4633699,11.5823039 C66.2313962,11.6652745 65.970454,11.7043058 65.8434909,11.6935547 C65.7151698,11.6809338 65.7183382,11.6049748 65.9799593,11.4107534 C66.1528646,11.6341898 66.3486278,11.5033066 66.6118331,11.300905 C66.7426436,11.197367 66.8954068,11.0879861 67.0649173,10.9701912 C67.2326173,10.8477219 67.4258911,10.7371723 67.6632963,10.6658877 C68.1684333,10.622182 66.8408647,11.236632 67.3969226,11.2004054 C67.435849,11.0288549 67.5415384,10.9493901 67.6929437,10.871795 C67.7694385,10.8341661 67.8545332,10.7925639 67.9500385,10.7458199 C68.0403385,10.6892597 68.136749,10.6200785 68.2356491,10.5303301 C68.2528491,10.6684586 68.4884438,10.5195789 68.7045754,10.3879946 C68.7584386,10.35504 68.8111702,10.3232541 68.8591491,10.2973112 C68.904186,10.2671613 68.9446965,10.2435556 68.9775123,10.2314021 C69.0431439,10.2070952 69.0782228,10.2283638 69.0542334,10.3382122 C69.0542334,10.3382122 69.3593071,9.93971953 69.6397124,9.55501635 C69.9078966,9.16891086 70.1760809,8.78303908 70.1760809,8.78303908 C70.480023,8.69399175 70.8738125,8.34855353 71.1560284,8.07907433 C70.3892704,8.69165454 71.1447126,7.61163427 70.212744,8.2197738 C69.9253229,8.50865176 69.5860755,8.84333885 69.2149176,9.1939189 C69.0291123,9.35986012 68.8358386,9.53257923 68.6378123,9.70927157 C68.5409491,9.80159099 68.4309596,9.87801744 68.3205175,9.95584621 C68.2100754,10.0341424 68.0985017,10.1131398 67.9864753,10.1926046 C67.0789489,10.8121964 66.0032698,11.2518238 65.0511592,11.4329568 C64.9882434,11.6225038 64.6770591,11.69075 64.3556907,11.7531533 C64.0302485,11.7956903 63.6932643,11.8143879 63.5488748,11.9770571 C63.4929748,11.8739865 63.3395326,11.7982612 63.2854432,11.6856082 C62.0407062,11.8024682 63.5882537,11.8639366 63.2956274,11.9990268 C63.01658,12.0315138 62.7608431,11.9999616 62.585901,11.94457 C62.4105062,11.8943202 62.3154536,11.7903148 62.3421588,11.734222 C61.4504745,11.6641059 62.2416746,11.8223344 61.7677693,11.9817315 C61.7677693,11.9817315 61.732464,11.9560223 61.6795061,11.9174585 C61.6270008,11.8777261 61.5568429,11.8307483 61.4894008,11.7697474 C61.3565534,11.6538223 61.2237061,11.5378971 61.2237061,11.5378971 C61.051706,11.519667 60.876085,11.5012031 60.6975218,11.4822718 C60.5209954,11.4476812 60.341527,11.4123895 60.1591164,11.3763966 C59.7890901,11.3200701 59.4260795,11.1908229 59.0456426,11.0826105 C58.8537268,11.0325944 58.6749373,10.940275 58.485511,10.8696915 C58.3918162,10.8315952 58.2974425,10.7934988 58.2028425,10.7551687 C58.1068846,10.7194096 58.0136425,10.6766388 57.9237951,10.6256878 C57.5592003,10.4333362 57.180574,10.2486974 56.8361213,9.99838326 L56.5708792,9.82075603 C56.4808055,9.7632609 56.3936739,9.70132509 56.3133318,9.63004048 L55.8179264,9.21752462 C55.4881843,8.93869662 55.164779,8.63719778 54.8443158,8.34458029 C54.1950157,7.76612321 53.5513735,7.19584632 52.9222155,6.65665421 L52.9833208,6.99905406 C52.4374471,6.4815979 51.8478943,6.23852906 51.3162785,5.9636743 C51.0517153,5.82297484 50.7837574,5.70050554 50.5400152,5.5249818 C50.2917468,5.35646965 50.069052,5.13116354 49.844773,4.86168434 L49.3618151,4.81260313 C49.6275099,4.83504026 49.3099888,4.37274203 49.7225625,4.43000344 C49.3342046,4.2965493 49.0069519,3.99014233 48.5993571,3.86533583 C48.5993571,3.86533583 48.7505361,3.97705401 48.9019413,4.08900591 C49.0492729,4.20656708 49.1968309,4.32436198 49.1968309,4.32436198 C48.6591045,4.23367861 48.2057939,3.8765544 48.1295255,3.63114836 C47.0486411,3.32731231 48.5337255,4.30613182 48.6505045,4.59243886 C49.4163572,4.78899741 49.7083046,5.07647305 49.9601941,5.3955009 C50.2084626,5.72481243 50.4370415,6.05599372 51.0910942,6.39395289 C51.9114891,6.80576759 51.1313785,6.15509101 51.2434048,6.08240408" id="Fill-80" fill="#FD9480"></path>
                <path d="M49.7653103,4.52473333 C49.6743387,4.49413667 49.5995798,4.47582333 49.5390071,4.46666667 C49.6148918,4.49346667 49.68875,4.51312 49.7653103,4.52473333" id="Fill-82" fill="#FD9480"></path>
                <path d="M71.1560284,8.35681085 C71.2465496,8.28847085 71.349906,8.20405085 71.4854628,8.08680085 C71.5654007,7.95302418 71.4064255,8.12566085 71.1560284,8.35681085" id="Fill-84" fill="#FD9480"></path>
                <path d="M48.638382,3.57333333 C48.638382,3.57333333 48.6377065,3.57467333 48.6401834,3.57757667 C48.6426604,3.57713 48.6460381,3.57847 48.6514423,3.58003333 C48.6464884,3.57757667 48.6415345,3.57489667 48.638382,3.57333333" id="Fill-86" fill="#FD9480"></path>
                <path d="M47.7375887,3.57333333 L47.9199823,3.66065667 C48.0118546,3.70264333 48.0996738,3.75289333 48.0996738,3.75289333 L48.0830106,3.62782667 C48.0830106,3.62782667 47.9976684,3.6113 47.9105248,3.59946333 C47.8240567,3.58628667 47.7375887,3.57333333 47.7375887,3.57333333" id="Fill-88" fill="#FD9480"></path>
                <path d="M74.8207949,5.46385 L74.7642754,5.36 C74.7516654,5.41025 74.7575201,5.45179 74.8207949,5.46385" id="Fill-90" fill="#FD9480"></path>
                <path d="M85.8148457,1.78666667 C85.8148457,1.78666667 85.7526968,1.79493 85.6905479,1.80319333 C85.6290745,1.81391333 85.5673759,1.82441 85.5673759,1.82441 C85.6484397,1.82753667 85.7344574,1.80743667 85.8148457,1.78666667" id="Fill-92" fill="#FD9480"></path>
                <path d="M100.69302,10.4762744 C100.494384,10.7885884 100.257531,11.1494361 100.046674,11.5015783 C99.825596,11.8458854 99.6296256,12.1806163 99.5269744,12.4520139 L99.4700941,12.3366645 C99.2739015,12.6833656 98.5386793,13.7613384 99.2599036,13.2768709 L99.3174505,13.0596658 C99.8000443,12.2293677 99.9126939,12.6570311 100.452835,12.1331707 C100.720128,11.7714524 100.829667,11.410387 100.956981,11.0832735 C101.083184,10.7546365 101.214497,10.4497223 101.48579,10.1587371 C101.677094,9.8714518 101.743528,9.98266603 101.755971,10.1165149 C102.25634,9.4931928 102.144579,9.04507125 102.409872,8.57366217 C102.844029,8.72557516 103.141762,8.18647992 103.434384,7.51266529 C103.746115,6.84842683 104.027184,6.04489852 104.575101,5.67490986 C104.613317,5.59003011 104.653089,5.50166811 104.694194,5.41025915 C104.739298,5.3151503 104.774182,5.24202313 104.844616,5.10447441 C104.970597,4.85919369 105.102799,4.60150748 105.239,4.33620384 C105.271662,4.27112937 105.304768,4.20561961 105.337874,4.13989222 C105.352539,4.10768144 105.374313,4.07307662 105.382979,4.0428246 L105.27344,3.9975554 C105.127462,3.93966306 104.979928,3.88090016 104.831729,3.82213725 C104.684195,3.76576839 104.536884,3.71201122 104.392462,3.66325977 C104.250261,3.61342012 104.099173,3.56880384 103.989634,3.54769272 C104.549105,3.54290464 103.164647,3.18575676 103.454159,3.03754366 C103.342398,3.12764678 103.129986,3.10261813 102.869803,3.01599726 C102.610286,2.92807054 102.299222,2.78616901 101.985048,2.65906703 C101.828405,2.59377491 101.672206,2.53000628 101.522895,2.47494326 C101.372251,2.42379777 101.228495,2.38244609 101.099181,2.35698217 C100.840109,2.30605432 100.638806,2.32085387 100.550375,2.46210248 C99.9560207,2.19679884 99.9384678,2.20528682 99.8982517,2.20811614 C99.8560358,2.21508064 99.7953783,2.20202221 99.0879296,1.95021229 C99.1094819,1.88122028 99.3525563,1.94237723 99.4527634,1.95391217 C98.9075124,1.67729124 98.5031291,1.99765789 98.0891916,1.61112856 C96.9222568,1.31840224 97.8536716,1.73627179 97.1231153,1.76978841 C96.5223172,1.61330497 96.3061276,1.55171274 96.1650378,1.46073906 C96.0226149,1.37520639 95.954403,1.26943316 95.6291188,1.0918386 C95.4740311,1.38412964 94.7574726,1.13297264 94.1333447,1.24157519 C94.2837664,1.2696508 95.1169739,1.41307581 94.5535035,1.47357984 C94.1971128,1.42744008 93.9460397,1.41002885 93.7496249,1.40915829 C93.5525435,1.41264053 93.4101206,1.43396929 93.2705861,1.45812737 C92.9917394,1.50666118 92.7246686,1.56825341 92.0572139,1.59110565 C91.3904257,1.23047553 93.3919011,1.62745159 92.2251885,1.31949045 C92.6535682,1.25093372 93.030178,1.24135755 93.358795,1.21698182 C93.6880786,1.18825329 93.9684807,1.15821892 94.210222,1.05810434 C93.0612844,0.927955391 91.6443873,0.925343706 90.3923542,1.09706197 C89.6929043,1.06985692 90.745412,0.928173031 90.1954951,0.910979441 C89.5660346,0.844599123 89.0885512,0.979100882 88.6483955,1.088574 C88.2064622,1.19456486 87.8060782,1.33798988 87.3037097,1.31296123 L87.4887928,1.11795545 C87.344148,1.19173554 87.1350685,1.24005171 86.8846619,1.27487417 C86.6349218,1.31579056 86.3451878,1.35300707 86.0367899,1.38521784 C85.4184389,1.43919266 84.7363197,1.54910105 84.1810703,1.71798999 C84.3459343,1.77609998 84.4514739,1.81571053 84.3154944,1.90080792 C84.2966084,1.79329357 84.1910688,1.77022369 84.026427,1.80112862 C83.8626739,1.83595108 83.6393743,1.9227896 83.383413,2.02159833 C82.8670465,2.20855143 82.2358086,2.48517236 81.6447867,2.49278977 C81.8069844,2.72327094 80.8178005,3.2064326 80.1794525,3.45563084 C79.9261574,3.46934218 79.9330453,3.34376368 79.9110486,3.27411876 C80.4702975,3.15245778 80.7091503,3.01055625 80.9053429,2.82207968 C81.1037573,2.64122051 81.2606225,2.41988024 81.6818922,2.23945636 C80.9971068,2.58223997 79.7641819,2.8475436 79.2269297,3.27890685 L79.3884609,2.9844394 C78.387501,3.32047616 78.7285606,3.77708569 77.6416136,4.0045199 L77.673831,3.81734916 C77.1732399,4.04521865 76.6508744,4.28309959 76.1233985,4.52315694 C75.6048102,4.78084315 75.067558,5.01894174 74.5729661,5.30513885 C74.3230038,5.44377577 74.0768188,5.58219506 73.8388547,5.72300839 C73.6064454,5.87230969 73.3815905,6.0226992 73.1671784,6.17374163 C72.7334661,6.46842671 72.364633,6.79836954 72.0582348,7.12025967 C72.0151302,7.31352433 72.9163274,7.06476137 73.0094245,7.12439484 C73.4035871,6.79205797 73.7026531,6.50803726 73.9728345,6.22945757 C74.2452378,5.95436012 74.5067538,5.71299693 74.8207064,5.45988116 L74.9395773,5.68274492 C74.9991239,5.43485252 75.8007806,4.8985866 75.2637506,5.02938848 C75.7816724,4.61217185 75.8065575,4.98934264 76.4040228,4.52032761 C76.4660134,4.77605507 76.0914034,5.01263017 76.1889442,5.20741831 L76.4426836,5.00000702 C76.5695534,4.89575728 76.7024222,4.80086607 76.7024222,4.80086607 C76.5648874,4.97954883 77.0905858,4.7153334 76.9590501,4.89118683 C77.4234244,4.49246964 77.814032,4.33859789 78.2244145,4.22890713 C78.6332416,4.11268717 79.0478457,4.00865506 79.5999845,3.73377525 C79.5999845,3.73377525 79.4355649,3.78317962 79.2713675,3.83258399 C79.1069478,3.88177072 78.9431948,3.93378677 78.9431948,3.93378677 C78.8898695,3.79297344 79.264924,3.67087718 79.5277732,3.52592869 C79.9190474,3.60384394 80.0894661,3.48892982 80.7215928,3.38250367 C81.1979653,3.10544746 81.4043786,2.74960543 82.124492,2.55590548 C82.0878309,2.71021252 82.3944513,2.66233163 82.733289,2.59943356 C83.0739042,2.54262942 83.4520693,2.48626056 83.5462773,2.58202233 C83.5898262,2.4320681 83.9306636,2.3188951 84.271501,2.23662704 C84.6138938,2.16023526 84.9522871,2.09907831 84.9876151,2.01071631 C85.1769198,1.94694768 85.4059963,1.89014354 85.5919683,1.88100264 C85.7781624,1.87207939 85.9188078,1.89580219 85.9290284,1.9680588 C85.8739257,1.98481711 85.762387,2.02899811 85.6432938,2.05903248 L86.0332349,2.01136924 C86.001462,2.04815046 86.019237,2.06947922 85.9745771,2.08166708 C86.3203027,2.03639788 86.2945288,1.83682165 86.7640134,1.90450781 C86.7706791,1.97741734 86.5271603,2.01398092 86.3334118,2.07078506 C86.5658211,2.04923866 86.7784557,1.99265216 86.9815361,1.9341069 C87.1852831,1.87926152 87.3781429,1.81244592 87.567892,1.75237718 C87.9469459,1.63267496 88.3135571,1.53321331 88.7132745,1.64072766 C88.8570306,1.50143781 89.9426444,1.42047559 89.6964594,1.14298409 C89.9966362,1.23765766 89.8913188,1.47401512 90.6836436,1.41133469 C91.1397969,1.16953622 91.5695098,1.49360276 92.175196,1.36258324 C91.3679846,1.59698194 92.1676416,1.42635188 91.4655255,1.66532102 C91.9965564,1.77131189 92.8068784,1.46813883 93.7416261,1.58457644 C93.8327234,1.65182732 93.822725,1.72473685 93.9136001,1.79220537 C94.2651026,1.73997167 94.6905939,1.56977689 95.0003249,1.82158682 L94.9798835,1.64225114 C95.2905032,1.72778381 95.6688905,1.7778411 96.0479444,1.86424433 C96.2376935,1.90472545 96.4281092,1.9486888 96.6109704,2.0009225 C96.792943,2.0585972 96.9673611,2.12475988 97.1253372,2.20332806 L97.5512729,2.11344258 L97.978986,2.03530968 C98.950617,2.59878064 100.405508,2.67539005 101.325814,2.66298455 C101.700424,2.8022744 102.24012,3.05887242 102.212124,3.12568801 C102.116361,3.120247 101.951053,3.1169824 101.765081,3.09935353 C102.31322,3.29610044 102.896021,3.73225177 103.308848,3.59513833 C103.600581,3.67065954 103.682791,3.75684514 103.739894,3.85021286 C103.768556,3.8967879 103.791219,3.94532171 103.830769,3.99559664 C103.877428,4.04913617 103.9172,4.09157605 103.969637,4.12857492 C104.082064,4.12531031 104.216933,4.15033895 104.357134,4.19125535 C104.427345,4.21193118 104.49889,4.23630691 104.569768,4.26329432 L104.622871,4.28397015 C104.62887,4.28832296 104.64709,4.28875824 104.642868,4.29681093 L104.631314,4.3203161 L104.581989,4.41651315 C104.512444,4.54687974 104.431789,4.68225206 104.352246,4.8091364 C104.256704,4.96257288 104.161385,5.11557407 104.068955,5.26356953 C103.64413,5.91366137 103.289962,6.47909109 103.459047,6.78726988 C103.585695,6.57855275 103.787664,6.28604407 104.018296,5.94434866 C104.131612,5.7726304 104.25826,5.59177123 104.371132,5.39545961 C104.426457,5.29665087 104.482892,5.19631865 104.539551,5.09533351 C104.597097,4.98934264 104.653756,4.88095773 104.707525,4.77344338 C104.660866,5.01676533 104.8735,4.87138156 104.695305,5.23331752 C104.491336,5.65728099 104.260037,5.93738417 104.048958,6.22684588 C103.834102,6.51478411 103.635909,6.80990448 103.424386,7.23125627 L103.150871,6.94157691 C102.853583,7.23038571 102.635394,7.55249348 102.449644,7.88461271 C102.255451,8.21129093 102.098808,8.55102757 101.942832,8.88031748 C101.791966,9.21287199 101.618658,9.51930965 101.423355,9.79614822 C101.22294,10.0692869 101.001418,10.3141323 100.69302,10.4762744" id="Fill-94" fill="#FD9480"></path>
                <path d="M100.879433,2.68 C100.879433,2.68 101.105885,2.77960667 101.331997,2.87899 C101.55879,2.97681 101.780142,3.08066 101.780142,3.08066 L101.759401,2.89775 C101.439783,2.85598667 101.126626,2.79278333 100.879433,2.68" id="Fill-96" fill="#FD9480"></path>
                <path d="M101.785321,2.72645333 C101.92403,2.75749667 102.062514,2.77424667 102.193117,2.78586 C102.05058,2.73203667 101.910069,2.69027333 101.780142,2.68 L101.785321,2.72645333 Z" id="Fill-98" fill="#FD9480"></path>
                <path d="M99.9787234,12.5066667 C99.7750637,12.6720988 99.3770383,12.9958476 99.0780142,13.4 C99.3762302,13.2135776 99.8764895,12.7510793 99.9787234,12.5066667" id="Fill-100" fill="#FD9480"></path>
                <polygon id="Fill-102" fill="#FD9480" points="99.0780142 13.6872067 99.3549823 13.4674467 99.3543067 13.4"></polygon>
                <path d="M82.8014897,25.1049746 L81.8447552,25.725294 C81.6235075,25.6984098 80.471371,26.2418228 80.7904311,25.9156868 C80.2594813,26.4130441 78.779818,26.5767732 79.420389,26.8 C80.977812,26.2453486 82.8335739,25.5915341 84.679978,24.7435807 C86.5266048,23.9013567 88.3598632,22.8656548 89.870051,21.6994984 C89.870051,21.6994984 89.7653316,21.8180532 89.6563788,21.9313194 C89.5469805,22.0439244 89.4373593,22.1567498 89.4373593,22.1567498 C89.8239299,21.8398691 90.1541303,21.5849101 90.4734132,21.3938562 C90.7906908,21.1999375 91.0839052,21.0498709 91.3539476,20.8863622 C91.6262181,20.7263793 91.8835605,20.5648539 92.1308766,20.3546284 C92.3781927,20.1446233 92.6038965,19.8700521 92.8258126,19.5093193 L92.8529951,19.8956141 C93.2449131,19.6602674 93.523645,19.3098916 93.8070559,18.9648046 C94.091358,18.6201582 94.4097496,18.3162788 94.8754168,18.1342597 L94.7190061,18.0921706 C94.9079467,17.929984 95.0218012,17.9110329 95.2149752,17.7475242 L95.0997838,17.7677975 C95.3038753,17.5029223 95.4885825,17.3125294 95.6835389,17.1346972 C95.8773812,16.9553224 96.0890482,16.7973228 96.3588678,16.6104557 C96.4633644,16.6558503 96.1654711,16.8480061 96.0362428,17.0053446 C96.3258923,16.8777549 96.5593944,16.3792958 96.9185597,16.0271572 C97.2652479,15.8147281 97.019937,16.1373382 97.011916,16.2078541 C97.5012008,15.6221316 97.936789,15.2774852 98.2785754,14.9160914 C98.6232583,14.5591047 98.9117938,14.22151 99.078008,13.6558404 C99.0797905,13.5209788 98.6954479,13.8378595 99.0269851,13.4 C98.8326972,13.5597625 98.6671514,13.7278988 98.5100722,13.8940519 C98.3516562,14.0588827 98.2095052,14.2285616 98.075598,14.4026476 C97.9416908,14.5765133 97.8158047,14.7550067 97.6901414,14.936585 C97.5629184,15.1170616 97.4294568,15.2944531 97.2917619,15.477574 L97.4711218,15.3012843 C97.3833357,15.7195316 97.2652479,15.7982009 97.0861108,15.8898716 C96.9058597,15.9815422 96.6701296,16.0910622 96.3102958,16.5542633 C96.3570853,16.380618 96.4731679,16.2098374 96.5867997,16.0560246 C96.6959752,15.8975842 96.8033684,15.7565525 96.8381263,15.6496769 C96.6877314,15.7340755 96.5571663,15.8208982 96.4415293,15.9090431 C96.322773,15.9938825 96.2189448,16.0800441 96.126257,16.1666464 C95.9404357,16.3394103 95.7976162,16.513276 95.6623722,16.6756829 C95.3965631,17.0044632 95.1421172,17.2691181 94.6584025,17.3821638 L94.7223482,17.3081222 C94.5429884,17.4000132 94.3371144,17.6986038 94.1332458,17.9231528 C94.250888,17.90927 94.4935252,17.7356247 94.6757815,17.6402079 C94.4732497,17.8715881 94.4915199,18.1327172 94.4681251,18.2642734 C94.0652895,18.3193639 94.1764704,18.6283116 93.6825066,18.8905425 C93.4097905,18.8614547 93.927149,18.467888 94.019614,18.2614087 L93.591824,18.7724284 C93.1321726,19.1611472 92.9944777,18.9725172 92.6956931,19.0685951 C92.3790839,19.4888257 92.9969286,18.9738394 92.7950652,19.3828315 C92.629965,19.4315315 92.3712857,19.5741058 92.0618064,19.7748557 C91.7498762,19.9725205 91.3768967,20.2146985 90.9987928,20.4861846 C90.2352322,21.0174777 89.4155241,21.6181848 88.8970516,22.0282787 C89.2698082,21.7722179 88.9255709,21.7711161 89.4101768,21.5165979 C89.2178941,21.5800622 88.6684513,22.0273973 88.7399724,22.1574109 C88.3870457,22.4533572 87.9374206,22.7100791 87.48022,22.9355095 C87.0265844,23.1675509 86.5511136,23.3418573 86.1427078,23.4736338 L86.4307977,23.4936868 C85.908983,24.0465753 84.7381307,24.1419921 83.6405819,24.7664984 L83.6664276,24.7596672 C83.3048113,24.9432288 83.1312445,25.4302291 82.3995453,25.6250292 C82.5285507,25.3854956 82.9079916,25.2548208 82.8014897,25.1049746" id="Fill-104" fill="#FD9480"></path>
                <path d="M77.9895271,27.2750864 L78.3617021,26.8 C77.867945,26.9435773 77.3405113,27.5412137 77.4853698,27.6933333 C77.8048015,27.5175579 78.2606726,27.4649896 78.2797394,27.2721295 C78.216596,27.2524163 78.1985196,27.1446512 77.9895271,27.2750864" id="Fill-106" fill="#FD9480"></path>
                <path d="M70.0344578,28.9861341 C69.8759612,29.0401723 69.9279201,29.1036001 69.8630806,29.159363 C71.6344882,28.9997395 73.7800878,28.612849 74.5018371,28.60825 C74.8015835,28.5829555 74.9633549,28.4995987 75.1390985,28.3986124 C75.3135321,28.2918774 75.5019379,28.1673213 75.8580097,28.0611611 L76.2359129,28.1692375 C76.3269502,28.1207564 76.4738762,28.0812817 76.6352109,28.0446814 C76.7956725,28.0063564 76.9687962,27.9651571 77.1163771,27.9298981 C77.4111024,27.8566974 77.5957968,27.7861795 77.3392767,27.694008 C77.2886277,27.6792528 77.0412768,27.9111189 76.6926278,27.9406291 L76.7170791,27.828337 C76.7170791,27.828337 76.5278,27.8837165 76.3356828,27.930473 C76.1442206,27.9793373 75.95254,28.0283933 75.95254,28.0283933 L76.1662704,27.8530566 C75.0642164,27.8898485 75.5266075,28.3957381 74.1806957,28.5068804 L74.1333214,28.2522111 C73.9143515,28.2867035 73.7237625,28.3229206 73.5484556,28.3572215 C73.3718388,28.3855819 73.210504,28.4114513 73.0522257,28.4369374 C72.735014,28.4827357 72.4267533,28.5091799 72.0278918,28.4865682 C72.0278918,28.4865682 72.0420823,28.615915 72.1837687,28.5434808 C72.3304764,28.536199 72.5372206,28.6118909 72.4503313,28.7017629 C71.8001893,28.8989448 71.8427607,28.8397328 71.934453,28.7569508 C72.0250537,28.6695699 72.1577892,28.5388818 71.6842641,28.5383069 C70.5839566,28.8671351 68.3962223,29.1597462 67.7504466,28.968313 C68.0239953,29.0332738 67.9639586,29.116439 67.7528481,29.1852323 C67.6471836,29.2195332 67.503969,29.250768 67.3465639,29.2735714 C67.1889405,29.2919673 67.0171266,29.3023151 66.8549186,29.3011653 C66.5567003,29.2151258 67.0553317,29.1444162 67.1570665,29.0654668 C66.8562285,29.0432383 66.6112791,28.98211 66.3143707,29.0254172 C66.7042813,29.1614708 66.4554022,29.357503 65.751773,29.4563814 C66.1379722,29.490299 66.5049597,29.4849335 66.8608131,29.4577228 C67.0385215,29.4439258 67.2138284,29.4261047 67.3871705,29.4023432 C67.5605126,29.3747493 67.7321081,29.3440893 67.9034854,29.3122796 C68.2462399,29.2488518 68.5874662,29.1813998 68.938735,29.1269784 C69.2893488,29.0616343 69.6502235,29.0091291 70.0344578,28.9861341" id="Fill-108" fill="#FD9480"></path>
                <path d="M69.872646,29.57246 C70.1029556,29.5478933 70.2039967,29.5146167 70.2553191,29.48 C69.9489882,29.50144 69.6410534,29.5231033 69.3546099,29.54298 L69.872646,29.57246 Z" id="Fill-110" fill="#FD9480"></path>
            </g>
        </g>
    </g>
</svg>