<?xml version="1.0" encoding="UTF-8"?>
<svg width="113px" height="113px" viewBox="0 0 113 113" version="1.1" xmlns="http://www.w3.org/2000/svg" xmlns:xlink="http://www.w3.org/1999/xlink">
    <!-- Generator: Sketch 51.3 (57544) - http://www.bohemiancoding.com/sketch -->
    <title>Group 37</title>
    <desc>Created with Sketch.</desc>
    <defs></defs>
    <g id="Page-1" stroke="none" stroke-width="1" fill="none" fill-rule="evenodd">
        <g id="Artboard-Copy" transform="translate(-202.000000, -263.000000)">
            <g id="Group-37" transform="translate(202.000000, 263.000000)">
                <path d="M31.980804,83.7330753 C39.194263,77.4718709 48.0673938,74.199642 57.0149392,73.8882642 C63.4416576,73.6642731 68.6890169,68.5840442 69.1345024,62.1545953 C69.7543738,53.2032376 73.3240213,44.428662 79.816886,37.4198998 C88.3783273,28.1782576 100.225287,23.9266953 111.819939,24.5921398 C110.834509,18.9685064 108.196172,13.5768998 103.888642,9.20831978 C92.6259747,-2.21397133 74.2565845,-2.32295356 62.85962,8.964742 C59.3476,12.442882 53.6873273,12.4092331 50.2168993,8.88965978 C38.9542319,-2.53263133 20.5848417,-2.64161356 9.18787716,8.646082 C-2.20908736,19.9340287 -2.31782794,38.3439887 8.94483947,49.7662798 C12.4152674,53.2861042 12.3819437,58.9589553 8.86992373,62.4370953 C-2.5270408,73.725042 -2.63578137,92.135002 8.62688603,103.557293 C11.4739348,106.44482 14.7759902,108.606384 18.3037951,110.046758 C19.3463517,100.226806 23.9147086,90.7343042 31.980804,83.7330753" id="Fill-1" fill="#63B0BA"></path>
                <polygon id="Fill-3" fill="#77BAC3" points="31.3215657 82.9712796 31.1490657 83.0521373 30.9013157 83.4900751"></polygon>
                <path d="M29.2924563,85.363816 C29.3766426,85.3193693 29.378647,85.3836538 29.464086,85.3384538 L29.9514142,84.5328893 C30.2132435,84.1421604 30.4750727,83.7514316 30.4750727,83.7514316 C30.0889685,83.9382582 29.8992989,84.2652049 29.7702634,84.5964204 C29.6379707,84.925376 29.5412568,85.2334893 29.2924563,85.363816" id="Fill-5" fill="#77BAC3"></path>
                <path d="M28.8816224,85.7126093 C28.5907288,85.9240449 28.4434029,86.1307093 28.3572122,86.299456 C28.2702698,86.4677004 28.2452144,86.600036 28.2164007,86.6849116 C28.2392011,86.5385138 28.46921,86.3024693 28.6593807,86.098316 C28.8560659,85.9004404 29.0176734,85.7377204 28.8816224,85.7126093" id="Fill-7" fill="#77BAC3"></path>
                <path d="M0.851408647,83.0041249 C0.853658647,83.0676249 0.860908647,83.1513749 0.868908647,83.2148749 C0.873408647,83.1081249 0.865658647,83.0398749 0.851408647,83.0041249" id="Fill-9" fill="#77BAC3"></path>
                <path d="M4.50023126,67.7568842 L4.44836652,67.5261131 C3.77988758,68.8816109 3.01845299,70.2790442 2.38204501,71.7691376 C1.73912262,73.2519487 1.1906592,74.8105953 0.88748847,76.3709998 L0.877466297,76.1472598 C-0.102952772,80.0645931 -0.168598004,84.0356642 0.523934146,87.8266887 C1.21997406,91.6212287 2.67293858,95.2497842 4.83296741,98.5606842 C4.75329113,98.465262 4.68990089,98.4557198 4.6064663,98.3572842 C4.73399845,98.5024264 4.86854612,98.6553531 5.00710266,98.8130509 C5.14315366,98.9712509 5.28822461,99.1294509 5.40122461,99.310502 C5.43354612,99.4232509 5.26968359,99.2557598 5.1774796,99.1515487 C5.34309601,99.4965753 5.57385654,99.8988553 5.86625344,100.301889 C6.16967472,100.696384 6.4928898,101.122771 6.84967916,101.510235 C7.21173016,101.893431 7.5504796,102.284913 7.88496962,102.6096 C8.21469911,102.938304 8.50008049,103.236373 8.7007745,103.48422 L8.68975011,103.474678 L8.70027339,103.483718 L8.7007745,103.48422 C8.79974346,103.595462 8.8719031,103.686615 8.92702506,103.768729 C9.28080776,104.081111 9.51432439,104.133593 9.38403614,103.893029 C10.5072712,104.943678 11.7264685,105.930042 13.0368676,106.807173 C14.3364929,107.688573 15.7543798,108.465762 17.1775284,109.108355 C17.4060339,109.206038 17.6290273,109.2992 17.8477612,109.381815 L17.9291914,109.413455 L17.9494863,109.42124 C17.9524929,109.416218 17.9519918,109.404415 17.9532446,109.396129 L17.9590073,109.34214 L17.9813067,109.12744 L18.0249031,108.704318 L18.0667457,108.290235 L18.0770184,108.188284 L18.08228,108.136555 L18.0940561,108.060971 L18.1406592,107.758131 C18.2025461,107.354093 18.264433,106.950306 18.3260694,106.547022 C18.3821936,106.142482 18.4776548,105.745726 18.5508166,105.345204 C18.6350029,104.947193 18.6941337,104.543406 18.7971115,104.15092 C18.9892867,103.362682 19.1601647,102.570426 19.3941825,101.800771 C19.5247213,101.517015 19.6129164,101.487635 19.67781,101.597622 C20.3064508,98.9242931 21.3810783,96.2853664 22.7801736,93.8174464 C24.18879,91.3522887 25.918116,89.0626576 27.8145616,86.9897353 C27.871688,86.7504264 27.3360029,87.3340087 27.6168743,86.8400731 C27.4507568,86.9965153 27.2946614,87.1557198 27.1463333,87.3164309 C27.0040184,87.4826664 26.8722268,87.6526687 26.7441936,87.8216664 C26.4888787,88.1601642 26.254861,88.4999176 26.0235993,88.833142 C25.7988521,89.1718909 25.590892,89.5154109 25.3571248,89.841102 C25.1291204,90.171062 24.8657878,90.4771664 24.6002002,90.7938176 L24.6250051,90.553002 C23.8961426,91.5107398 24.726229,90.9163598 23.9134308,91.8680709 C23.5611514,92.2241464 23.8603133,91.6872709 23.7262667,91.8725909 C22.3835461,94.0391776 21.0678854,96.3870664 20.4282202,98.7181309 C20.1866858,98.9388576 19.9629408,99.5877287 19.7038676,100.26824 C19.6407279,100.439246 19.576586,100.612513 19.5134463,100.78352 C19.4560694,100.956284 19.3979408,101.126035 19.33881,101.287249 C19.2202978,101.609424 19.0977767,101.896695 18.9697435,102.104615 C18.9103621,102.432315 18.840708,102.756249 18.7951071,103.033978 C18.7477523,103.310702 18.7216947,103.540218 18.7680472,103.681844 C18.5458055,104.404793 18.3927169,105.146575 18.2185816,105.885093 C18.1261271,106.253222 18.0687501,106.628633 17.9988455,107.002286 L17.8011581,108.11044 L17.7322557,108.633504 L17.6986814,108.895664 L17.6901625,108.960953 L17.6518277,108.944882 L17.5754086,108.912991 L17.4225705,108.847953 L17.3461514,108.814304 L17.3075661,108.797229 L17.2063421,108.749266 C16.875861,108.593829 16.5468831,108.434373 16.2221647,108.265878 C13.6181537,106.930469 11.1985506,105.187255 9.09639978,103.092738 L9.05881663,103.055322 L9.02599401,103.030713 L9.02574346,103.030713 L9.09614922,103.092738 C8.12199401,102.097835 7.19293858,101.049698 6.35809157,99.922962 C5.53552173,98.7889442 4.77208271,97.6057087 4.12439978,96.3574353 C2.94629335,94.6569109 2.13073902,92.4953464 1.60582772,90.1951687 L1.50485432,89.7627553 L1.42492749,89.3238131 C1.37155942,89.0307664 1.3179408,88.7364642 1.26407162,88.4411576 C1.22373237,88.143842 1.18289202,87.845522 1.14230222,87.5461976 C1.09870576,87.2476264 1.05911818,86.9477998 1.03606718,86.6452109 C1.00650177,86.3436264 0.976685809,86.0415398 0.946869845,85.7389509 L0.888991796,84.8274176 C0.834120399,84.2199798 0.84113592,83.6090264 0.802550554,82.9990776 C0.818586031,82.9656798 0.836876497,82.9714553 0.851408647,83.0040998 C0.828858758,82.6070931 0.820089357,82.1631287 0.812071619,81.6910398 C0.817082705,81.2194531 0.847399778,80.7204953 0.873707982,80.211242 C0.930082705,79.7052531 0.978690244,79.187462 1.05886763,78.6827287 C1.15382772,78.1807576 1.22874346,77.6828042 1.35101397,77.2222664 C1.35101397,77.2222664 1.390351,76.8172242 1.42968803,76.412182 C1.44622461,76.2080287 1.47128004,76.005382 1.49658603,75.8549664 C1.51863481,75.7032953 1.53341752,75.6023487 1.53341752,75.6023487 C2.98663259,70.793822 5.65403392,66.3632176 9.23520687,62.8077353 L9.09965698,62.9044131 L9.23545743,62.8077353 C10.1131492,61.9383887 10.8232202,60.8937664 11.3027812,59.7499553 C11.784096,58.6068976 12.0364042,57.3679153 12.0441714,56.1269242 C12.051688,54.8859331 11.8129098,53.6436864 11.3461271,52.4928442 C10.8808477,51.3412487 10.1848078,50.284322 9.31864146,49.396142 L9.18259047,49.296702 L9.31864146,49.396142 C7.94735765,47.9941887 6.72565477,46.4470931 5.69086541,44.788002 C3.93347738,42.0011709 2.73783215,39.0006442 2.03953725,35.9574287 C1.70204058,34.4321798 1.4890694,32.8961331 1.39285654,31.3625976 C1.29639313,29.829062 1.31368137,28.2965309 1.46476563,26.7795687 C1.61008714,25.2626064 1.86640421,23.7599576 2.22995854,22.2796576 C2.59326231,20.7988553 3.08910931,19.3491909 3.67716031,17.9286553 C4.84775011,15.0813064 6.49664812,12.3934131 8.55244634,9.904902 C8.57649956,9.950102 8.66143747,9.88732422 8.45422905,10.1474753 C8.81277228,9.737662 9.18509601,9.34919311 9.5235949,8.98658867 L9.39881885,9.075482 L9.3990694,9.075482 L9.47022683,9.03957311 L9.5235949,8.98658867 C10.635555,7.88320644 11.8091514,6.92898422 13.0213333,6.067422 C14.2362712,5.20711533 15.5060805,4.46784422 16.8139741,3.75368422 L16.8249984,3.800642 C18.7161825,2.74497089 20.7982889,1.92609756 22.9695927,1.38645978 C25.1446548,0.859628667 27.4018987,0.605253111 29.6468654,0.607262 C34.1460694,0.635135333 38.5473067,1.71290422 42.4096016,3.42297089 C43.0840938,3.74815978 43.7345328,4.132862 44.3992534,4.51304422 C44.7219674,4.71895533 45.0471869,4.92662422 45.3746614,5.13554867 C45.7061448,5.33894867 46.0150783,5.58177311 46.3405483,5.80576422 C47.6216326,6.73135978 48.8791647,7.78878867 50.0951049,9.01019311 L50.0457457,8.88865533 L50.0951049,9.01044422 C50.8871071,9.80495978 51.8434729,10.4754264 52.9135905,10.9419909 C53.9824552,11.4103131 55.1618144,11.6749842 56.3604663,11.6990909 C57.5586171,11.7249553 58.7753089,11.5102553 59.9068122,11.0577531 C61.0393177,10.6085153 62.0793687,9.91544867 62.9427789,9.04911533 L62.9119608,9.070962 L62.9427789,9.04911533 C64.0356969,7.96732867 65.2183133,6.94857089 66.4763466,6.02397978 C67.7318743,5.09511978 69.081861,4.29382422 70.460912,3.58744867 L70.4797035,3.68337311 C72.4134818,2.67390644 74.4657723,1.92584644 76.5659186,1.44095089 C78.6688211,0.966099778 80.81532,0.748135333 82.9530494,0.764959778 C83.4877324,0.753408667 84.0211625,0.800366444 84.5545927,0.820706444 C85.0877723,0.848328667 85.6184463,0.916882 86.1501226,0.962082 C86.6785417,1.03942422 87.2087146,1.10395978 87.7346282,1.19586644 L88.5218698,1.34502644 L88.9154907,1.41935533 L89.3056038,1.51201533 C91.3902157,1.98686644 93.4312313,2.67114422 95.4101093,3.54827533 C97.4037701,4.539662 99.3250206,5.73319311 101.127508,7.12108422 C101.589029,7.45455978 102.010211,7.83976422 102.453442,8.20035978 C102.889657,8.56949311 103.299063,8.97051756 103.726007,9.35421533 C104.547575,10.155762 105.332311,11.0002487 106.069692,11.889182 C107.52867,13.6773442 108.791715,15.6455531 109.753593,17.7491109 C110.242174,18.7964953 110.650076,19.8790353 110.981058,20.9786509 C111.155695,21.5255709 111.289992,22.0835398 111.423788,22.6384953 L111.599677,23.4756998 C111.651291,23.7539309 111.692883,24.0281442 111.736229,24.2930664 L111.760032,24.5255953 C111.773562,24.5547242 111.73222,24.5366442 111.71393,24.538402 L111.645027,24.5313709 L111.509477,24.5183131 C111.336595,24.5024931 111.16246,24.4866731 110.986571,24.470602 C110.821455,24.4575442 110.654837,24.4444864 110.486965,24.4314287 C110.302307,24.4201287 110.116145,24.4085776 109.92873,24.3972776 C109.178571,24.3653864 108.406863,24.4030531 107.623881,24.4241464 C106.842151,24.4766287 106.0504,24.5682842 105.255892,24.6546664 C104.466395,24.7902664 103.670384,24.9065309 102.886149,25.0677442 C99.7404397,25.7115931 96.7746282,26.7383864 94.2495417,27.4997553 C89.0781004,29.1618598 84.4395882,32.2158731 80.6953044,36.0646531 C78.8091315,37.9818864 77.1662468,40.1288864 75.7478588,42.410482 C75.3797945,42.9727198 75.0658499,43.5693598 74.7311093,44.1514353 C74.4003776,44.7367753 74.113994,45.3472264 73.8043089,45.9436153 C73.5264441,46.5570798 73.2365528,47.1645176 72.9777302,47.7865198 C72.7321869,48.4145487 72.4575794,49.0297709 72.2446082,49.6713598 C71.245147,51.9501931 70.5097701,54.3465464 70.0239452,56.7830776 C69.9552933,57.0861687 69.9039297,57.3925242 69.8555727,57.699382 L69.7052401,58.6181976 C69.6132867,59.2314109 69.5534042,59.8491442 69.4769851,60.4631109 C69.4283776,61.0813464 69.3797701,61.6988287 69.3314131,62.3160598 L69.2346991,63.2584798 C69.1958632,63.5718664 69.1181914,63.8789753 69.061065,64.1895998 C68.7834508,65.419542 68.3492401,66.6208576 67.7198477,67.715702 C67.0882002,68.807282 66.3012091,69.8036909 65.389943,70.6644998 C64.4804308,71.5295776 63.418331,72.2158642 62.3031137,72.7507309 L61.880178,72.9428309 C61.7401182,73.0083709 61.5993067,73.0711487 61.4509785,73.1165998 L60.5755417,73.4134131 C59.977218,73.5572998 59.3854086,73.7167553 58.7760605,73.7684842 C58.2193288,73.9357242 57.63228,73.9779109 57.0417235,74.0449576 C56.4581825,74.0916642 55.8686282,74.1175287 55.2723089,74.1464064 C54.6764907,74.1880909 54.0749098,74.2302776 53.4683177,74.2727153 C53.165147,74.3005887 52.8607235,74.328462 52.5550472,74.3565864 C52.2488698,74.382702 51.9411891,74.4073109 51.6347612,74.4512553 C49.1770738,74.7335042 46.6467257,75.2337176 44.2564375,76.1733753 L44.4689075,76.2210864 C44.2378965,76.2577487 44.0066348,76.3142487 43.7766259,76.3853131 C43.5503754,76.4654176 43.3256282,76.5603376 43.1038876,76.6632931 C42.6614086,76.8719664 42.224943,77.0994731 41.8253089,77.3510864 C41.4224175,77.5951664 41.0368144,77.8206642 40.6760162,77.9924242 C40.3207302,78.1757353 39.9854885,78.297022 39.66979,78.3108331 L39.8306459,78.2010976 C39.5835993,78.2525753 39.351586,78.3788842 39.1341049,78.5378376 C38.9198809,78.7030687 38.7239475,78.9079753 38.5370339,79.1010798 C38.1657124,79.4920598 37.8319741,79.8355798 37.5055018,79.863202 L37.4426126,80.0593198 C36.4757235,80.7137153 37.2466792,80.0050798 36.4541758,80.441762 C36.1753089,80.6373776 36.4742202,80.7081909 35.8510916,81.0471909 C35.6398743,80.8714131 35.0518233,81.2887598 34.4983488,81.7332264 C33.9458765,82.1794509 33.396912,82.6106087 33.1756725,82.3981687 C33.6873044,81.998902 32.2290783,82.8436398 33.3014508,81.8447198 C33.2104996,81.897202 33.0376171,82.0061842 32.8494508,82.1603664 C32.6610339,82.3142976 32.44681,82.4998687 32.253382,82.681422 C31.8665262,83.0442776 31.5648588,83.388802 31.7184486,83.429482 C31.7720672,83.7498998 31.3451226,84.4263931 32.3909364,83.8146864 L32.4455572,83.5095864 C32.8825239,83.4066309 32.744218,83.3915642 32.9496725,83.4156709 C33.2530938,83.1753576 33.4961315,82.9938042 33.7183732,82.8654864 C33.9408654,82.737922 34.1302845,82.647522 34.3099319,82.568422 C34.6727346,82.4142398 34.983422,82.2846664 35.4699984,82.0222553 C35.4577213,82.023762 35.4456947,82.0252687 35.4534619,82.0074398 C35.6927412,81.696062 36.0487789,81.4198398 36.4068211,81.1837953 C36.766116,80.9492576 37.1426991,80.7787531 37.4012712,80.6313509 L37.6615971,80.5989576 C38.0730073,80.5919264 38.9354153,79.3255731 38.7289585,79.8991109 C40.0471248,79.0681842 41.5436858,78.3093264 43.1239319,77.6330842 C43.5220627,77.4711176 43.9159341,77.2903176 44.3248388,77.1426642 C44.7327412,76.9932531 45.1426481,76.8433398 45.5530561,76.6931753 C46.3846459,76.4242353 47.2164863,76.1434931 48.061606,75.9292953 C48.4880494,75.6269576 50.662861,75.325122 49.8543222,75.2035842 C50.3160938,75.2563176 51.1915306,75.2126242 52.0634596,75.114942 C52.9411514,75.0544242 53.8185927,74.9366531 54.2976525,74.8977309 C54.2650805,74.9321331 54.2279984,74.9718087 54.0776659,74.9738176 C54.5519652,75.0365953 54.9207812,75.0298153 55.2387346,74.9898887 C55.5564375,74.9484553 55.8247812,74.8972287 56.0896171,74.8349531 C56.3547035,74.7761931 56.617535,74.7204464 56.9242135,74.7063842 C57.2369053,74.690062 57.6282712,74.7021153 58.1168521,74.7950264 C58.1489231,74.7445531 58.2275971,74.7071376 58.3405971,74.6707264 C58.453096,74.6272842 58.6009231,74.5881109 58.7743067,74.5504442 C59.1208233,74.473102 59.5750783,74.4221264 60.0378521,74.2875309 C60.2708676,74.2265109 60.5093953,74.1639842 60.7446659,74.1022109 C60.9729208,74.0185909 61.1959142,73.9299487 61.4036237,73.8397998 C61.6095794,73.7458842 61.8062645,73.6642731 61.9643643,73.5537842 C62.1224641,73.4442998 62.2547568,73.3348153 62.3499674,73.2270887 C62.5945084,73.2002198 62.7002424,73.2316087 62.6533887,73.3287887 C64.1882845,72.5596353 65.6635483,71.4620287 66.8371448,70.1572553 C68.0107412,68.852482 68.8739009,67.3603798 69.3900428,65.9792687 C69.5032933,65.3509887 69.6987257,64.6908176 69.815484,63.9809264 C69.8488078,63.8048976 69.8916525,63.6286176 69.921218,63.4490731 C69.9437678,63.2685242 69.9665683,63.0867198 69.9893687,62.9044131 C70.0362224,62.5400509 70.0873355,62.1636353 70.1179031,61.8454776 C70.1848011,61.182042 70.2509475,60.5283998 70.3125838,59.9194553 C70.3406459,59.6143553 70.3594375,59.3192998 70.3652002,59.037302 C70.3749718,58.7558064 70.3844929,58.4893776 70.3689585,58.2380153 C70.5453488,57.4437509 70.8289763,56.417962 71.1374086,55.3216109 C71.450351,54.225762 71.791606,53.0590998 72.0809962,51.9629998 L72.0604508,52.1882464 C72.2686614,51.5863331 72.4736149,50.9404753 72.730433,50.3059176 C72.8527035,49.9862531 72.9754752,49.6645798 73.0974951,49.3451664 C73.2292867,49.0295198 73.3605772,48.715882 73.4891115,48.4080198 C73.9992401,47.1735576 74.5151315,46.0480776 74.8280738,45.2123798 C75.0164907,45.1011376 75.1791004,44.9519776 75.3444663,44.7862442 C75.5105838,44.6212642 75.6671803,44.4324287 75.8210206,44.2295309 C75.9751115,44.0268842 76.1266969,43.8104264 76.2827922,43.5909553 C76.443147,43.3739953 76.618535,43.160802 76.7996858,42.9523798 C76.9973732,42.5749598 77.2566969,42.1066376 77.6027124,41.6152131 C77.7733399,41.3676176 77.953739,41.1057087 78.1406525,40.8342576 C78.3288188,40.5630576 78.5465506,40.2993909 78.7570162,40.0211598 C79.5963732,38.9037153 80.6063576,37.7822531 81.4627523,36.7973953 C81.8578765,36.6329176 82.9685838,35.2613487 83.2604796,35.386402 C85.7610118,32.7339153 89.1898477,30.3697042 92.9762246,28.6664176 C94.8831936,27.8435264 96.868586,27.1705487 98.8670073,26.6881642 C99.3656104,26.5653709 99.871229,26.4787376 100.36883,26.3750287 C100.618131,26.3258109 100.866681,26.2765931 101.11473,26.2276264 C101.365034,26.1919687 101.614586,26.156562 101.863386,26.1211553 C102.360987,26.0543598 102.853828,25.9820398 103.343661,25.9245353 C103.836001,25.8868687 104.32408,25.8497042 104.8074,25.813042 L104.698659,25.8479464 C105.189245,25.6904998 105.716912,25.5209998 106.247085,25.3507464 C106.515679,25.2636109 106.784775,25.1759731 107.050112,25.089842 C107.183908,25.0484087 107.316451,25.0072264 107.447741,24.9662953 C107.579282,24.9296331 107.710322,24.9017598 107.839107,24.8723798 C107.942085,24.8952309 107.932063,24.9436953 107.714331,24.9469598 C108.430916,24.9085398 109.127457,24.9371664 109.818737,24.9986887 L110.337384,25.0569464 L110.467171,25.0707576 L110.663105,25.0858242 L111.062739,25.1136976 C111.331834,25.1315264 111.60544,25.1458398 111.878293,25.1548798 C112.013843,25.1586464 112.149894,25.1624131 112.286446,25.1661798 L112.488644,25.1691931 C112.515202,25.1777309 112.492903,25.1445842 112.494657,25.1320287 L112.483633,25.0805509 L112.461333,24.9770931 C112.491901,25.0079798 112.507185,25.0235487 112.530486,25.0818064 C112.542012,25.1111864 112.555792,25.1511131 112.574584,25.2101242 C112.600391,25.2535664 112.549528,25.2354864 112.525726,25.2447776 C112.495158,25.2485442 112.46008,25.252562 112.419992,25.2573331 L112.515202,25.2540687 L112.562808,25.2528131 L112.586861,25.2520598 C112.596883,25.2538176 112.602896,25.2518087 112.597134,25.2397553 L112.548526,25.0313331 C112.519211,24.8957331 112.489646,24.7593798 112.46008,24.6225242 C112.404708,24.3523287 112.355349,24.084142 112.308495,23.8109331 C112.285194,23.6738264 112.261892,23.5362176 112.23834,23.3978553 C112.215038,23.2740576 112.191737,23.1497576 112.168435,23.0247042 C112.137868,22.8431509 112.107049,22.6595887 112.075981,22.4740176 C112.010837,22.1036287 111.92189,21.7297242 111.821418,21.3500442 C111.711925,20.9728753 111.568608,20.5959576 111.394473,20.2215509 L111.436566,20.1103087 L110.98632,19.1616109 C111.086542,19.1508131 111.233868,19.1387598 111.391967,19.6788998 C110.352418,16.6477376 108.77593,13.7705064 106.7512,11.2352887 C105.739712,9.96667533 104.615726,8.78695533 103.408304,7.69838867 C102.192615,6.61835978 100.892739,5.63174422 99.5212047,4.75411089 C98.1536792,3.86944644 96.6952024,3.12992422 95.1996437,2.49009311 C93.7005772,1.85729311 92.154657,1.33297311 90.5731581,0.951535333 C87.4106614,0.197197556 84.136167,-0.0870602222 80.8982534,0.164302 L81.3677922,0.0417597778 C81.3677922,0.0417597778 81.2109452,0.0623508889 80.9759253,0.0932375556 C80.8586659,0.109057556 80.7216126,0.127388667 80.5750384,0.146975333 C80.4292157,0.173090889 80.2738721,0.201215333 80.1182778,0.229088667 C79.8080916,0.285086444 79.4981559,0.341084222 79.2653909,0.383019778 C79.0338787,0.429475333 78.8810406,0.468146444 78.8810406,0.468146444 C78.887555,0.417924222 79.0020583,0.375235333 79.1178144,0.334555333 C77.5157701,0.477939778 75.9124729,0.874444222 74.3753222,1.40177756 C72.8379208,1.93413311 71.3583976,2.58275311 69.96281,3.28184644 C69.9540406,3.23413533 70.3398942,2.94234422 69.921218,3.08798867 C69.6739208,3.24191978 69.4389009,3.38856867 69.2149053,3.52818644 C68.9891559,3.66353533 68.770422,3.78431978 68.5589541,3.89455756 C68.1377723,4.12005533 67.7576814,4.32345533 67.4096614,4.50977978 C67.0563798,4.68957533 66.7569674,4.88845533 66.4956392,5.095622 C66.2370672,5.30705756 66.0155772,5.52627756 65.8654951,5.81128867 C65.7655239,5.85623756 65.6339829,5.803002 65.7960916,5.62345756 C64.6392823,6.528462 63.5411027,7.51357089 62.4774996,8.57702644 L62.6193133,8.47582867 L62.477249,8.57702644 C61.7110539,9.35823311 60.7862579,9.99103311 59.767504,10.4159131 C58.7495018,10.8420487 57.6410494,11.0610176 56.5323466,11.0549909 C55.4233931,11.0487131 54.3169452,10.8151798 53.3027013,10.3769909 C52.2872047,9.93980644 51.3671692,9.29620867 50.6049829,8.50520867 L50.7625816,8.89292422 L50.6049829,8.50520867 C50.4077967,8.31009533 50.2128654,8.11699089 50.0176836,7.92388644 C49.4980339,7.48770644 48.9392978,7.08542644 48.3968477,6.65677978 C48.1227412,6.44559533 47.8336016,6.25073311 47.5537324,6.04281311 L47.1307967,5.73269089 C46.9884818,5.63073978 46.8396525,5.53657311 46.6945816,5.43738422 C45.5442867,4.62729978 44.3110583,3.90259311 43.0447568,3.23162422 C40.5048876,1.90851978 37.7224818,0.951535333 34.9601204,0.637646444 L35.0052202,0.545739778 C31.443841,0.0455264444 27.7203532,0.0226753333 24.0519874,0.690630889 C20.3908876,1.350802 16.795433,2.71885533 13.6913155,4.788262 C13.230045,5.09662644 12.7950827,5.38841756 12.3864286,5.68271978 C11.9882978,5.99183756 11.6026947,6.28588867 11.2328765,6.58923089 C10.8740827,6.90563089 10.5197989,7.21826422 10.1602534,7.53566867 C9.81749512,7.87039978 9.46972572,8.21040422 9.10717361,8.56447089 L9.13724013,8.54312644 L9.11719579,8.55317089 L9.10717361,8.56447089 C8.65993415,9.05765311 8.09869246,9.61989089 7.54045743,10.2943753 L7.3968898,10.273282 C6.99951064,10.7965976 6.64196962,11.3578309 6.24183437,11.8919442 C6.05467029,12.1684176 5.86625344,12.4461464 5.67708492,12.7251309 L5.38794523,13.1407198 L5.11484102,13.5696176 C4.35816696,14.6978598 3.673402,15.8989242 3.03899845,17.1374042 C2.40434435,18.3771398 1.8917102,19.6881909 1.48130222,21.0230976 C1.07841086,22.3615198 0.841386475,23.7418776 0.758452993,25.1081731 C0.758452993,25.1081731 0.726883149,25.008482 0.701827716,24.9092931 L0.65221796,24.710162 C0.673013969,24.9291309 0.666750111,25.2440242 0.632674723,25.5872931 C0.604362084,25.9313153 0.537213525,26.3029598 0.519173614,26.6429642 C0.466807761,27.3219687 0.448767849,27.8553287 0.681282262,27.7061687 C0.681282262,27.7061687 0.667000665,27.7654309 0.653220177,27.8545753 C0.637936364,27.9439709 0.617641463,28.0629976 0.597597118,28.1820242 C0.557007317,28.421082 0.516417517,28.6601398 0.516417517,28.6601398 C0.769978492,30.511582 0.821843237,32.1646464 1.00725344,33.9415087 C1.19817583,35.7070709 1.53341752,37.6072287 2.50757273,39.6603131 L2.30637761,39.418242 C2.77917361,40.5309153 3.43888315,41.7638709 3.74931996,42.6050931 C3.67490532,42.4868198 3.67590754,42.5593909 3.52607605,42.3138042 C4.04171685,43.6954176 4.78786763,45.0612109 5.7249408,46.3165153 C6.65650177,47.576842 7.73939756,48.7485264 8.87065033,49.8396042 L8.8977102,49.859442 L8.87090089,49.8396042 C9.50680776,50.4676331 10.0557723,51.1810398 10.4694375,51.9614931 L10.0763177,51.6734687 C10.6553488,52.4124887 11.1805106,53.6918998 11.3200694,55.1018887 C11.484433,56.5138864 11.2065683,58.0024731 10.8189608,59.1784264 L10.783382,59.0051598 C10.783382,59.0051598 10.764841,59.0814976 10.73728,59.1957531 C10.7119741,59.3115153 10.672637,59.4641909 10.6152601,59.6103376 C10.5105284,59.9094109 10.4055461,60.2084842 10.4055461,60.2084842 L10.2284042,60.1507287 C9.79444412,60.935702 9.26076341,61.6395664 8.68949956,62.2540353 L8.75664812,62.2063242 L8.68949956,62.2542864 C7.05062373,63.9525509 5.70765255,65.7864153 4.50023126,67.7568842" id="Fill-11" fill="#77BAC3"></path>
                <path d="M5.17738236,99.1512364 C5.17363236,99.1424864 5.16538236,99.1304864 5.16263236,99.1194864 C5.09388236,99.0479864 5.12238236,99.0862364 5.17738236,99.1512364" id="Fill-13" fill="#77BAC3"></path>
                <path d="M35.8150736,81.8285231 C35.6873236,81.9035231 35.5803236,81.9635231 35.4700736,82.0215231 C35.5163236,82.0347731 35.7068236,81.8935231 35.8150736,81.8285231" id="Fill-15" fill="#77BAC3"></path>
                <path d="M66.0193355,107.056953 C66.0193355,107.056953 66.0193355,107.056953 66.0195855,107.056953" id="Fill-17" fill="#24C0A7"></path>
                <path d="M107.134423,67.360656 C114.703419,78.7191649 113.439372,94.213976 103.385629,104.172289 C93.1705295,114.288803 77.3600506,115.245034 66.0793432,107.109536 C64.7749574,106.168874 63.5264452,105.112952 62.358361,103.929967 C58.8881836,100.408636 53.2276603,100.374485 49.7143876,103.852374 C41.2003011,112.288954 28.7918488,114.357105 18.3630262,110.099767 C19.407086,100.278309 23.9739397,90.7858071 32.0387823,83.7868382 C39.2544962,77.523876 48.1281282,74.2508938 57.0759242,73.9405204 C63.5016404,73.7167804 68.7469951,68.6368027 69.1929818,62.2060982 C69.8128532,53.2570004 73.3819996,44.4819227 79.8758665,37.4736627 C88.4363055,28.2295093 100.284268,23.9787004 111.877918,24.6461538 C112.172319,26.3198093 112.317891,28.0153116 112.317891,29.7108138 C112.317891,37.2034671 109.445787,44.6961204 103.704585,50.3817782 C101.935671,52.1330271 101.049461,54.4432493 101.049461,56.7534716 C101.049461,59.0295427 101.907609,61.3056138 103.63017,63.0505849 C104.956354,64.3982982 106.121432,65.8452004 107.134423,67.360656" id="Fill-21" fill="#FD99C4"></path>
                <polygon id="Fill-23" fill="#FDA6CB" points="107.829739 66.8913029 107.781489 66.7365529 107.446739 66.4785529"></polygon>
                <path d="M106.035166,64.9333407 C106.064982,65.0081718 106.011113,65.0036518 106.04143,65.0797384 C106.04143,65.0797384 106.35337,65.3230651 106.661301,65.5761851 C106.96823,65.8295562 107.270399,66.0924696 107.270399,66.0924696 C107.031621,65.397394 106.205543,65.3720318 106.035166,64.9333407" id="Fill-25" fill="#FDA6CB"></path>
                <path d="M105.777321,64.5564982 C105.459618,64.0377027 105.159955,63.9673916 105.024906,63.9026049 C105.268695,63.9668893 105.717939,64.7754671 105.777321,64.5564982" id="Fill-27" fill="#FDA6CB"></path>
                <path d="M104.695903,24.3698776 C104.750653,24.3618776 104.822903,24.3476276 104.877403,24.3351276 C104.784153,24.3416276 104.725653,24.3546276 104.695903,24.3698776" id="Fill-29" fill="#FDA6CB"></path>
                <path d="M91.8935293,28.7004933 L91.827884,28.8875711 C92.0957266,28.72234 92.372088,28.5616289 92.6549639,28.4044333 C92.939343,28.2507533 93.2402588,28.1229378 93.5406734,27.9860822 C94.1457621,27.7221644 94.7596202,27.4441844 95.4063009,27.2402822 C96.6806202,26.7789911 98.0025448,26.4173911 99.2700991,26.0208867 L99.1079905,26.1102822 C102.370458,25.2881444 105.58482,24.81706 108.81672,24.6935133 C109.622753,24.6412822 110.437556,24.6643844 111.23933,24.67016 L111.829385,24.6749311 C111.863962,24.6643844 111.853939,24.7050644 111.862208,24.7244 L111.875988,24.7959667 L111.90405,24.9396022 L111.957418,25.2311422 C112.027824,25.6268933 112.091465,26.0344467 112.145835,26.4389867 C112.254576,27.2503267 112.329492,28.0707067 112.368578,28.8988711 C112.388121,29.3129533 112.400398,29.7290444 112.393383,30.1466422 C112.384614,30.56424 112.401401,30.9848511 112.370582,31.4054622 C112.363316,31.2997444 112.324982,31.2620778 112.316713,31.1533467 C112.341769,31.4787867 112.404658,31.84566 112.366323,32.2097711 C112.32874,32.3019289 112.309447,32.1022956 112.303684,31.9845244 C112.261341,32.1595489 112.231024,32.3559178 112.199203,32.5666 C112.16162,32.77678 112.129549,33.0020267 112.101487,33.2358111 C112.076682,33.4703489 112.051126,33.7129222 112.025319,33.9577556 C111.993749,34.2020867 111.961678,34.4484267 111.930108,34.6907489 C111.898288,34.9330711 111.874735,35.1731333 111.837403,35.4001378 C111.795059,35.6261378 111.754469,35.8420933 111.717137,36.0414756 C111.636709,36.4397378 111.557033,36.7699489 111.449795,36.9715911 C111.368866,37.3630733 111.414968,37.5604467 111.543753,37.3633244 C110.896571,39.9359578 109.832718,42.49704 108.45066,44.8908822 C107.751363,46.0839111 106.968631,47.2309867 106.126268,48.3265844 C105.916554,48.6010489 105.689551,48.8609489 105.472571,49.1288844 C105.254339,49.3958156 105.036607,49.6629978 104.800585,49.9126022 C104.569824,50.1672289 104.339314,50.4213533 104.109556,50.6749756 L103.787092,51.0335622 C103.684616,51.1543467 103.587651,51.2791489 103.488181,51.4011889 C103.315048,51.5719444 103.236875,51.5696844 103.216079,51.4674822 C102.007906,53.3081267 101.443658,55.5525578 101.708494,57.7437533 C101.83778,58.8360867 102.171518,59.9075778 102.699937,60.8771178 C102.963771,61.3620133 103.275711,61.8210444 103.629744,62.2451711 C103.972753,62.6534778 104.415984,63.0899089 104.80284,63.5371378 C104.999775,63.6064444 104.550531,63.1069844 104.943651,63.3857178 C104.706126,63.0801156 104.452815,62.8109244 104.190735,62.5638311 C104.071722,62.4518356 103.954463,62.3415978 103.838707,62.2323644 C103.729214,62.1193644 103.613959,62.0123911 103.508225,61.8981356 C103.082784,61.4456333 102.712465,60.9406489 102.519037,60.3304489 L102.674631,60.4334044 C102.498742,60.0148022 102.44337,59.9891889 102.369957,59.9648311 C102.302308,59.9389667 102.232403,59.9043133 102.129676,59.4317222 C102.09109,59.04928 102.272492,59.4826978 102.22639,59.3144533 C101.905429,58.40292 101.77464,57.4060089 101.804206,56.4319489 C101.831265,55.4553778 102.005651,54.5041689 102.245933,53.60042 C102.430341,53.4281578 102.635795,52.9485356 102.928192,52.4734333 C103.215077,51.9975778 103.579633,51.5247356 103.895081,51.3286178 C104.15666,50.9235756 104.585359,50.5180311 104.629456,50.2716911 C107.28433,47.5976089 109.398507,44.3206089 110.785325,40.7447867 C112.180913,37.1692156 112.850645,33.3093867 112.831853,29.4570911 C112.731631,28.56188 112.626649,27.6229756 112.517658,26.6514267 C112.488343,26.4096067 112.458527,26.1660289 112.428461,25.9204422 C112.392381,25.6567756 112.35605,25.3908489 112.319469,25.1234156 C112.292911,24.9506511 112.266101,24.7773844 112.239292,24.6036156 L112.197951,24.3404511 L112.192689,24.3073044 L112.190183,24.2907311 C112.185924,24.2889733 112.17966,24.2897267 112.174398,24.2892244 L112.109254,24.28596 L111.977964,24.2794311 C111.648735,24.2628578 111.317503,24.2460333 110.984516,24.22946 C108.945254,24.0805511 106.798755,24.1084244 104.696605,24.4110133 C104.665786,24.4009689 104.669044,24.3851489 104.695853,24.3700822 C104.015849,24.5144711 103.174237,24.6289778 102.31258,24.8261 C101.880124,24.9144911 101.438897,24.9998689 101.003935,25.0789689 C100.572731,25.1766511 100.149044,25.2750867 99.744649,25.3587067 C99.744649,25.3587067 99.4156712,25.4807467 99.0864428,25.6030378 C98.921578,25.6612956 98.7587177,25.7265844 98.6387022,25.78208 C98.5176845,25.8345622 98.437006,25.8694667 98.437006,25.8694667 C96.0274251,26.4342156 93.6752211,27.30532 91.4157222,28.3840933 C89.1604827,29.4721578 86.9851701,30.7656311 84.9752233,32.2921356 C82.9642743,33.8168822 81.097394,35.5327244 79.3765869,37.38492 C77.6693098,39.2501733 76.127649,41.2678511 74.7646335,43.3985289 C71.6840681,48.2552689 69.7838641,53.4424711 68.9267177,58.7504578 C68.8405271,59.4171578 68.7355448,60.0813467 68.6716534,60.7503067 C68.6090149,61.4099756 68.561159,62.1153467 68.4847399,62.7180133 C68.3436778,63.9637756 68.037751,65.2015022 67.5150947,66.3606311 C66.4813075,68.6786378 64.7306845,70.7302156 62.4308463,72.1356844 C62.4223275,72.0907356 62.3436534,72.1261422 62.5709062,71.9671889 C61.2462255,72.7614533 59.807292,73.21722 58.3708641,73.4053022 C58.1932211,73.4437222 58.0108175,73.4424667 57.8309195,73.45904 L57.2909749,73.4987156 C56.9366911,73.5283467 56.5453253,73.5386422 56.1745049,73.5617444 C55.4225914,73.5898689 54.6746867,73.6812733 53.9225226,73.7741844 L53.9275337,73.7340067 C50.2105603,74.3258756 46.394618,75.2544844 42.82021,76.7603978 C41.0337576,77.5054444 39.3026778,78.36776 37.6835958,79.3558822 C36.0695248,80.3515378 34.5646956,81.4604444 33.20619,82.6487022 C29.7668308,85.37376 26.5717621,88.88806 24.0890193,92.93346 C22.8462698,94.9539 21.7804118,97.1016533 20.9200082,99.3151978 C20.0598552,101.529496 19.4121723,103.810589 18.9679395,106.087664 L18.8955293,106.0505 C18.795057,106.504509 18.7429417,106.967056 18.6632654,107.422822 C18.5883497,107.879844 18.5094251,108.334858 18.4610681,108.793889 L18.3738752,109.486453 L18.326771,109.85408 L18.3029683,110.037893 L18.2909417,110.1298 C18.2816712,110.149638 18.3059749,110.149136 18.3182521,110.155664 L18.361598,110.171736 C18.8065825,110.336967 19.2510659,110.501947 19.6950481,110.666927 L20.3387222,110.90724 L20.9966778,111.103107 L22.3105847,111.498356 L23.6475426,111.802953 L24.3165226,111.955127 C24.5407687,111.998569 24.767771,112.027196 24.9932698,112.063858 L26.3500215,112.272782 C26.8045271,112.323758 27.2620392,112.350627 27.7187998,112.390302 L28.404567,112.444291 C28.6335736,112.464631 28.8633319,112.452578 29.0925891,112.458102 L30.4718907,112.462873 C32.3074517,112.371971 34.1600503,112.18866 35.9607843,111.701253 C36.907629,111.541044 37.822904,111.225398 38.7539639,110.951938 C39.2132299,110.7965 39.6617222,110.604651 40.1164783,110.429124 L40.7964827,110.157673 C41.0204783,110.060744 41.2369572,109.945233 41.457445,109.839264 C41.8956645,109.621551 42.3346357,109.403336 42.774108,109.184869 C43.1952898,108.933004 43.6169727,108.680638 44.0391568,108.42802 C44.2491213,108.300456 44.4613408,108.176909 44.6687998,108.045327 L45.2703807,107.617433 C45.6700149,107.330413 46.0749106,107.051178 46.4685315,106.757629 L47.6022898,105.814707 C47.7894539,105.655753 47.983884,105.50584 48.1647843,105.340107 L48.6949572,104.829598 L49.7563053,103.814858 L50.2947466,103.316904 C50.4738929,103.150167 50.6813519,103.018082 50.8737776,102.867667 C51.6687865,102.300407 52.5565004,101.864478 53.4898153,101.592022 C54.427139,101.334382 55.4010437,101.237704 56.3541523,101.303747 C57.5295027,101.44688 58.7619794,101.758509 59.9368286,102.325016 L60.1593208,102.427469 L60.3720415,102.550262 C60.5148574,102.631622 60.6581745,102.713233 60.8019927,102.795347 C61.0853696,102.965851 61.3484517,103.171762 61.6270681,103.358589 C61.8816313,103.5758 62.1404539,103.791002 62.394516,104.015747 C62.6425647,104.247773 62.8961257,104.474024 63.1524428,104.695504 C64.1782122,105.581676 65.2540925,106.386989 66.3091767,107.110691 C67.3595004,107.842931 68.393037,108.48452 69.3203386,109.110038 C73.2164583,111.533009 77.7815581,112.799362 82.3276157,112.819451 C86.8774317,112.8531 91.4067022,111.717324 95.4240902,109.577104 C96.3864694,109.157247 97.3082588,108.649249 98.2100038,108.111369 C99.0969661,107.549884 99.9686446,106.960778 100.781944,106.297844 C102.419066,104.988049 103.911618,103.503731 105.205731,101.875276 C106.5026,100.249331 107.637862,98.50888 108.585709,96.6828 C109.529547,94.85446 110.317791,92.9580689 110.95019,91.0129622 C111.30723,89.1077822 111.723651,87.1262644 111.953911,85.0362667 C112.162873,82.9527978 112.20221,80.7595933 111.793556,78.6193733 L111.724904,78.78812 C111.727159,78.3936244 111.671035,77.9833089 111.571815,77.58128 C111.462323,77.1810089 111.330281,76.7847556 111.195483,76.4103489 C111.051163,76.0379511 110.916365,75.6843867 110.828671,75.3576911 C110.730454,75.0337578 110.67433,74.7376978 110.706651,74.4717711 L110.775053,74.6219356 C110.76503,74.4087422 110.697631,74.1950467 110.590394,73.9929022 C110.480401,73.7915111 110.341343,73.5976533 110.207798,73.4145933 C109.94672,73.0452089 109.681633,72.7303156 109.709194,72.4505778 L109.557108,72.3709756 C109.147201,71.4735044 109.639039,72.20926 109.362678,71.4961044 C109.228882,71.2404733 109.134172,71.4810378 108.939742,70.91202 C109.12415,70.7510578 108.817472,70.2222178 108.526829,69.6971444 C108.225913,69.1775956 107.912469,68.6766289 108.115669,68.51416 C108.390276,68.9912711 107.85384,67.6641489 108.562908,68.6841622 C108.451913,68.3383822 107.505319,66.9263844 107.412112,67.1747333 C107.141013,67.1840244 106.622616,66.7526156 107.026008,67.6945333 L107.273556,67.7738844 C107.315398,68.1503 107.341707,68.0365467 107.300866,68.2052933 C107.47425,68.48252 107.591509,68.71078 107.671436,68.9126733 C107.75462,69.1125578 107.810243,69.2805511 107.857849,69.4390022 C107.957319,69.7533933 108.006427,70.0401622 108.174299,70.4745844 C108.174299,70.4640378 108.174299,70.4539933 108.18833,70.4627822 C108.305589,70.5803022 108.412325,70.7211756 108.509791,70.8733489 C108.602997,71.0275311 108.681671,71.1952733 108.754833,71.3610067 C108.897398,71.6942311 109.018416,72.0184156 109.094835,72.2587289 L109.086066,72.4809622 C109.054245,72.659 109.281999,72.9600822 109.460143,73.19236 C109.628015,73.4284044 109.750536,73.5898689 109.527793,73.4633089 C110.546296,75.8890422 111.207008,78.8780178 111.377886,81.8175244 C111.548764,82.2228178 111.422485,84.0740089 111.659008,83.4273978 C111.592862,83.6134711 111.539744,83.8896933 111.47911,84.2108644 C111.418476,84.5320356 111.386656,84.8994111 111.329279,85.2667867 C111.274157,85.6344133 111.236574,86.0048022 111.193729,86.3325022 C111.145873,86.6597 111.109793,86.9457156 111.088997,87.1476089 C111.066698,87.11396 111.041392,87.0760422 111.066447,86.9514911 C110.93666,87.3311711 110.863248,87.6340111 110.826166,87.9016956 C110.790086,88.16938 110.794846,88.40216 110.792341,88.6316756 C110.78307,88.8601867 110.771795,89.0861867 110.717676,89.3395578 C110.665811,89.5934311 110.567343,89.8744244 110.3669,90.2031289 C110.489421,90.3505311 110.314784,90.9983978 110.076507,91.7032667 C109.96952,92.0593422 109.832718,92.4252111 109.736254,92.7617 C109.643048,93.0996956 109.580159,93.4052978 109.58517,93.6312978 C109.454381,93.7766911 109.374203,93.8100889 109.346642,93.7287289 C108.869336,94.9621867 108.255979,96.2167378 107.564951,97.3625578 C106.875425,98.5091311 106.148066,99.5703267 105.464053,100.449216 C105.24131,100.87736 104.914336,101.292949 104.580347,101.728627 C104.402203,101.9373 104.21554,102.145471 104.027124,102.354396 L103.743245,102.667029 L103.445587,102.966604 C103.248902,103.16674 103.053469,103.365118 102.862296,103.559478 C102.667616,103.750573 102.473687,103.933633 102.29429,104.118953 C101.940006,104.494867 101.604764,104.835624 101.353458,105.177638 C101.086117,105.391333 100.761148,105.61658 100.408367,105.861162 C100.231727,105.982951 100.053332,106.116542 99.862159,106.243353 C99.670986,106.369662 99.4743009,106.499236 99.2738574,106.63132 C98.4796002,107.168447 97.6074206,107.700049 96.8211812,108.241947 L96.9574827,108.107853 C96.0301812,108.643473 94.9608153,109.202949 93.9345448,109.659971 C92.9170437,110.138338 91.9481501,110.519776 91.2746601,110.856013 C90.9176202,110.778922 90.5199905,110.80328 90.0993098,110.878613 C89.6783785,110.952189 89.221618,111.030033 88.7613497,111.080507 C88.4213475,111.193507 87.9848818,111.295709 87.4915404,111.409713 C87.2424894,111.453156 86.9791568,111.498858 86.7060525,111.546318 C86.5692499,111.569169 86.4296911,111.592271 86.2883785,111.615876 C86.1460636,111.6327 86.0019949,111.650027 85.8561723,111.667353 C84.6913452,111.826809 83.422037,111.879542 82.3246091,111.933531 C82.1587421,111.841624 81.7074938,111.853176 81.284057,111.834593 C80.8611213,111.809984 80.4657466,111.778596 80.4211479,111.653542 C77.3591235,111.615876 73.9162565,110.836678 70.7647843,109.299124 C69.1867931,108.538007 67.6892299,107.588304 66.3204517,106.5251 C65.6364384,105.990987 64.984496,105.428749 64.3723918,104.843911 C64.0662144,104.551618 63.7695581,104.254051 63.4831745,103.952216 C63.1920304,103.649124 62.9434805,103.351307 62.5994694,103.016073 L62.6894184,103.075336 C62.4884738,102.941744 62.2877798,102.797104 62.0597754,102.683351 C61.8300171,102.571858 61.5952477,102.464884 61.3629838,102.361929 C61.128465,102.261987 60.8774095,102.193936 60.6448951,102.112073 C60.4143851,102.025942 60.1758574,101.971451 59.9506091,101.914449 C59.8787,101.857196 59.9047576,101.824802 60.0783918,101.908422 C59.7862455,101.783871 59.5118885,101.635213 59.2209949,101.527989 C58.9351124,101.408209 58.6539905,101.276627 58.3570836,101.188989 L57.9141035,101.041838 C57.7655248,100.994127 57.6111834,100.970522 57.4578441,100.936622 C57.3040038,100.905484 57.1489106,100.876607 56.9923142,100.851244 C56.8347155,100.833667 56.6746113,100.830653 56.514006,100.826133 C56.5267843,100.786458 56.5262831,100.786458 56.7387532,100.75984 C56.1299062,100.768629 55.5050237,100.723429 54.8460659,100.769131 C54.5173386,100.793991 54.1788397,100.817596 53.8451013,100.909753 C53.6769794,100.949429 53.5081058,100.994127 53.3392322,101.045102 C53.1748685,101.111396 53.0107554,101.184218 52.8486468,101.264824 L52.75068,101.230924 C52.75068,101.230924 52.6983142,101.255031 52.6196401,101.29094 C52.5407155,101.325342 52.4364849,101.37456 52.3380171,101.436082 L51.9403874,101.667104 C51.9258552,101.585996 51.9073142,101.461193 52.3705891,101.279138 L51.8852654,101.496851 C51.7244095,101.571431 51.5590437,101.637473 51.40821,101.732644 L50.9464384,101.999827 C50.8702698,102.045529 50.7915958,102.087464 50.7174317,102.136431 L50.5009528,102.292622 C50.2125647,102.501547 49.9176623,102.703189 49.6605936,102.951789 L49.2627133,103.309371 L48.9016645,103.64134 L48.189088,104.301009 L47.8330503,104.632224 C47.7150392,104.743718 47.5970282,104.85496 47.467241,104.952391 C46.9608707,105.358438 46.4537488,105.764987 45.9458752,106.172289 C43.8524938,107.721393 41.5391257,109.003818 39.0771789,109.946238 C36.6164849,110.889411 34.0082144,111.491576 31.3598552,111.708033 C28.7122477,111.925747 26.0250525,111.757251 23.4268042,111.19426 L23.8231812,111.199533 C23.8231812,111.199533 23.3120503,111.127464 22.8009195,111.055396 C22.6731368,111.036311 22.5441013,111.021244 22.4248375,111.000402 C22.3065758,110.974789 22.1960814,110.950933 22.1016224,110.930342 C21.9119528,110.889411 21.7856734,110.862291 21.7856734,110.862291 C21.8072211,110.826382 21.9066911,110.834167 22.0059106,110.84396 C21.6947222,110.737238 21.3810282,110.635789 21.0653297,110.538358 C20.7491302,110.442182 20.4301745,110.353289 20.121241,110.230244 L19.1881767,109.900033 L18.9509018,109.824449 L18.8907687,109.805364 C18.8812477,109.801849 18.8689705,109.800091 18.8617044,109.795069 L18.8639594,109.765438 L18.8729794,109.644904 L18.8825004,109.519349 L18.8995381,109.334531 L18.949649,108.836578 L19.000261,108.33988 L19.0736734,107.848456 C19.1784051,107.195567 19.2638441,106.544436 19.4254517,105.91942 C19.4607798,105.939509 19.4520104,106.33526 19.5730282,105.992996 C19.6233896,105.517642 19.7055714,105.095524 19.8012831,104.716598 C19.9122787,104.341438 20.031292,104.008213 20.1352721,103.702611 C20.2420082,103.397511 20.321935,103.116518 20.3860769,102.852098 C20.4494672,102.587678 20.4745226,102.333553 20.439445,102.071393 C20.4865492,101.993298 20.6018042,101.967182 20.5775004,102.162798 C22.0284605,97.0702644 24.7336956,92.1801267 28.2898131,88.2015222 C29.5854295,86.3812178 31.2904517,84.7143422 33.1332787,83.2034067 C34.9821191,81.6919689 36.9805404,80.3525422 38.9333608,79.0806644 L38.9531545,79.1637822 C39.2673497,78.9556111 39.5975803,78.7725511 39.928312,78.58698 C40.2600459,78.4036689 40.5897754,78.2120711 40.9295271,78.0380511 C41.616547,77.70558 42.3003098,77.3510111 43.0183984,77.0649956 C44.4350326,76.4455044 45.9230747,75.9623667 47.4296579,75.5377378 C48.9399993,75.1206422 50.4849173,74.8185556 52.0340947,74.5681978 L53.2006756,74.4142667 L53.783465,74.3384311 L54.3685093,74.2841911 C54.7583718,74.2497889 55.1472322,74.2045889 55.5365936,74.1762133 C55.9267067,74.1523578 56.3160681,74.1285022 56.7051789,74.1046467 C58.0043031,74.0463889 59.1185182,73.9163133 60.1615758,73.5589822 L60.5572011,73.44096 C60.6867377,73.3932489 60.8142698,73.3387578 60.9438064,73.2875311 C61.2008752,73.1805578 61.4667133,73.0856378 61.728292,72.9651044 C61.9856113,72.8350289 62.2489439,72.70194 62.5212965,72.56408 C62.6603541,72.5008 62.7908929,72.4169289 62.92519,72.33356 C63.0599882,72.2511956 63.1970415,72.1670733 63.3371013,72.0811933 L63.4480969,72.1331733 C64.3257887,71.44312 65.2042322,70.7234356 65.9696756,69.86112 C66.1766335,69.6602311 66.3545271,69.4327244 66.5379328,69.20798 C66.7175803,68.9807244 66.9197776,68.7682844 67.0763741,68.5214422 C67.2437443,68.28138 67.4116157,68.0408156 67.5797377,67.7997489 C67.7268131,67.54462 67.874139,67.2889889 68.021465,67.0331067 C68.1800659,66.7817444 68.2875537,66.5047689 68.4148353,66.2363311 C68.538108,65.9658844 68.6688973,65.6971956 68.7548375,65.4114311 C68.8497976,65.1294333 68.950771,64.8479378 69.0364605,64.5624244 L69.2318929,63.6898133 C69.3075603,63.4005333 69.3188353,63.1009578 69.3546645,62.8064044 C69.3842299,62.5113489 69.4152987,62.2135311 69.4268242,61.9275156 C69.4636557,61.3507133 69.4596468,60.7716511 69.4864561,60.1978622 L69.582669,60.5268178 C69.5222854,60.16346 69.6317776,59.4781778 69.7059417,58.91368 C69.8009018,58.3521956 69.8602831,57.9082311 69.6555803,58.0099311 L69.9041302,57.2309844 C69.9256778,56.8382467 69.9667687,56.4565578 70.0193851,56.0821511 C70.0456933,55.8948222 70.0752588,55.7095022 70.1080814,55.5256889 C70.1479195,55.3436333 70.1907643,55.1628333 70.2361146,54.9832889 C70.3263142,54.6239489 70.4257843,54.2688778 70.5312676,53.9135556 C70.6495293,53.562 70.777312,53.2114489 70.9055958,52.8561267 C70.9702388,52.6785911 71.0351324,52.4998 71.1007776,52.3195022 C71.1729373,52.1414644 71.2458486,51.9616689 71.319261,51.7798644 C71.4673386,51.4167578 71.6109062,51.0431044 71.7594849,50.6579 C72.0816978,49.8970333 72.3788552,49.0741422 72.7150991,48.1754156 L72.6912965,48.4405889 C72.8676867,47.9632267 73.0636202,47.4466911 73.2941302,46.9826378 C73.5208818,46.5173289 73.7290925,46.0781356 73.955343,45.7722822 C73.9094916,45.8810133 73.9580991,45.8451044 73.8618863,46.0670867 C74.7736534,44.7535244 75.6130104,43.3154111 76.5483297,41.8973867 C76.773578,41.5375444 77.0268885,41.1957822 77.264414,40.8414644 L77.6267155,40.3136289 C77.7499882,40.1393578 77.8820304,39.9721178 78.0095625,39.8013622 C78.267884,39.4626133 78.5229483,39.1211022 78.7887865,38.79064 C79.063394,38.4679622 79.3402565,38.1490511 79.6196246,37.8366689 L79.4883341,38.2294067 C79.9353231,37.5448778 80.760649,36.7438333 81.6092765,35.88202 C82.0602743,35.4787356 82.5230481,35.0649044 82.9720415,34.6631267 C83.0832876,34.5619289 83.1940326,34.4612333 83.3032743,34.3617933 C83.4170259,34.2676267 83.5292743,34.1742133 83.6400193,34.0825578 C83.8612588,33.8984933 84.0739794,33.7179444 84.2736712,33.5421667 L84.2210548,33.6827889 L84.9907576,32.9216711 L85.1060126,33.0266356 C87.307884,31.3685489 89.4681634,29.8965356 91.8935293,28.7004933" id="Fill-31" fill="#FDA6CB"></path>
                <path d="M112.303733,31.9841374 C112.305983,31.9763874 112.306733,31.9638874 112.310733,31.9551374 C112.303233,31.8713874 112.301983,31.9118874 112.303733,31.9841374" id="Fill-33" fill="#FDA6CB"></path>
                <path d="M108.29917,70.7826598 C108.24992,70.6681598 108.21092,70.5726598 108.17417,70.4746598 C108.15817,70.5114098 108.25642,70.6856598 108.29917,70.7826598" id="Fill-35" fill="#FDA6CB"></path>
            </g>
        </g>
    </g>
</svg>